<mxfile host="app.diagrams.net" modified="2024-05-07T01:37:33.147Z" agent="Mozilla/5.0 (Windows NT 10.0; Win64; x64) AppleWebKit/537.36 (KHTML, like Gecko) Chrome/124.0.0.0 Safari/537.36" etag="lIvYJelFB9AW7EiD9aea" version="24.3.1" type="github" pages="6">
  <diagram name="Use Case Diagram" id="_FnHyHu40F9vVKdBkXFf">
    <mxGraphModel dx="1354" dy="2254" grid="1" gridSize="10" guides="1" tooltips="1" connect="1" arrows="1" fold="1" page="1" pageScale="1" pageWidth="1169" pageHeight="1654" math="0" shadow="0">
      <root>
        <mxCell id="0" />
        <mxCell id="1" parent="0" />
        <mxCell id="FZnKAHAChJolFSwTWyHp-43" value="" style="rounded=0;whiteSpace=wrap;html=1;fillColor=default;" parent="1" vertex="1">
          <mxGeometry x="315" y="-70" width="515" height="700" as="geometry" />
        </mxCell>
        <mxCell id="FZnKAHAChJolFSwTWyHp-1" value="User" style="shape=umlActor;verticalLabelPosition=bottom;verticalAlign=top;html=1;outlineConnect=0;" parent="1" vertex="1">
          <mxGeometry x="240" y="230" width="30" height="60" as="geometry" />
        </mxCell>
        <mxCell id="FZnKAHAChJolFSwTWyHp-5" value="Login" style="shape=ellipse;html=1;strokeWidth=3;fontStyle=1;whiteSpace=wrap;align=center;perimeter=ellipsePerimeter;" parent="1" vertex="1">
          <mxGeometry x="339" y="410" width="120" height="60" as="geometry" />
        </mxCell>
        <mxCell id="FZnKAHAChJolFSwTWyHp-6" value="Register" style="shape=ellipse;html=1;strokeWidth=3;fontStyle=1;whiteSpace=wrap;align=center;perimeter=ellipsePerimeter;" parent="1" vertex="1">
          <mxGeometry x="339" y="530" width="120" height="60" as="geometry" />
        </mxCell>
        <mxCell id="FZnKAHAChJolFSwTWyHp-7" value="Validasi Data" style="shape=ellipse;html=1;strokeWidth=3;fontStyle=1;whiteSpace=wrap;align=center;perimeter=ellipsePerimeter;" parent="1" vertex="1">
          <mxGeometry x="510" y="530" width="120" height="60" as="geometry" />
        </mxCell>
        <mxCell id="FZnKAHAChJolFSwTWyHp-10" value="Upload SFX" style="shape=ellipse;html=1;strokeWidth=3;fontStyle=1;whiteSpace=wrap;align=center;perimeter=ellipsePerimeter;" parent="1" vertex="1">
          <mxGeometry x="480" y="120" width="120" height="60" as="geometry" />
        </mxCell>
        <mxCell id="FZnKAHAChJolFSwTWyHp-11" value="Play SFX" style="shape=ellipse;html=1;strokeWidth=3;fontStyle=1;whiteSpace=wrap;align=center;perimeter=ellipsePerimeter;" parent="1" vertex="1">
          <mxGeometry x="670" y="290" width="120" height="60" as="geometry" />
        </mxCell>
        <mxCell id="FZnKAHAChJolFSwTWyHp-12" value="Download SFX" style="shape=ellipse;html=1;strokeWidth=3;fontStyle=1;whiteSpace=wrap;align=center;perimeter=ellipsePerimeter;" parent="1" vertex="1">
          <mxGeometry x="670" y="450" width="120" height="60" as="geometry" />
        </mxCell>
        <mxCell id="FZnKAHAChJolFSwTWyHp-13" value="Add Tags" style="shape=ellipse;html=1;strokeWidth=3;fontStyle=1;whiteSpace=wrap;align=center;perimeter=ellipsePerimeter;" parent="1" vertex="1">
          <mxGeometry x="670" y="30" width="120" height="60" as="geometry" />
        </mxCell>
        <mxCell id="FZnKAHAChJolFSwTWyHp-14" value="Add description" style="shape=ellipse;html=1;strokeWidth=3;fontStyle=1;whiteSpace=wrap;align=center;perimeter=ellipsePerimeter;" parent="1" vertex="1">
          <mxGeometry x="670" y="110" width="120" height="60" as="geometry" />
        </mxCell>
        <mxCell id="FZnKAHAChJolFSwTWyHp-15" value="Add to Favourite" style="shape=ellipse;html=1;strokeWidth=3;fontStyle=1;whiteSpace=wrap;align=center;perimeter=ellipsePerimeter;" parent="1" vertex="1">
          <mxGeometry x="670" y="530" width="120" height="60" as="geometry" />
        </mxCell>
        <mxCell id="FZnKAHAChJolFSwTWyHp-16" value="Edit Data SFX" style="shape=ellipse;html=1;strokeWidth=3;fontStyle=1;whiteSpace=wrap;align=center;perimeter=ellipsePerimeter;" parent="1" vertex="1">
          <mxGeometry x="670" y="-50" width="120" height="60" as="geometry" />
        </mxCell>
        <mxCell id="FZnKAHAChJolFSwTWyHp-17" value="Remove SFX" style="shape=ellipse;html=1;strokeWidth=3;fontStyle=1;whiteSpace=wrap;align=center;perimeter=ellipsePerimeter;" parent="1" vertex="1">
          <mxGeometry x="670" y="190" width="120" height="60" as="geometry" />
        </mxCell>
        <mxCell id="FZnKAHAChJolFSwTWyHp-18" value="Share SFX" style="shape=ellipse;html=1;strokeWidth=3;fontStyle=1;whiteSpace=wrap;align=center;perimeter=ellipsePerimeter;" parent="1" vertex="1">
          <mxGeometry x="670" y="370" width="120" height="60" as="geometry" />
        </mxCell>
        <mxCell id="FZnKAHAChJolFSwTWyHp-19" value="View All SFX" style="shape=ellipse;html=1;strokeWidth=3;fontStyle=1;whiteSpace=wrap;align=center;perimeter=ellipsePerimeter;" parent="1" vertex="1">
          <mxGeometry x="480" y="320" width="120" height="60" as="geometry" />
        </mxCell>
        <mxCell id="FZnKAHAChJolFSwTWyHp-20" value="Search SFX" style="shape=ellipse;html=1;strokeWidth=3;fontStyle=1;whiteSpace=wrap;align=center;perimeter=ellipsePerimeter;" parent="1" vertex="1">
          <mxGeometry x="480" y="220" width="120" height="60" as="geometry" />
        </mxCell>
        <mxCell id="FZnKAHAChJolFSwTWyHp-21" value="&amp;lt;&amp;lt;include&amp;gt;&amp;gt;" style="html=1;verticalAlign=bottom;labelBackgroundColor=none;endArrow=open;endFill=0;dashed=1;rounded=0;exitX=0;exitY=1;exitDx=0;exitDy=0;entryX=0.5;entryY=0;entryDx=0;entryDy=0;" parent="1" source="FZnKAHAChJolFSwTWyHp-10" target="FZnKAHAChJolFSwTWyHp-5" edge="1">
          <mxGeometry width="160" relative="1" as="geometry">
            <mxPoint x="420" y="210" as="sourcePoint" />
            <mxPoint x="260" y="210" as="targetPoint" />
          </mxGeometry>
        </mxCell>
        <mxCell id="FZnKAHAChJolFSwTWyHp-22" value="&amp;lt;&amp;lt;extend&amp;gt;&amp;gt;" style="html=1;verticalAlign=bottom;labelBackgroundColor=none;endArrow=open;endFill=0;dashed=1;rounded=0;exitX=0;exitY=0.5;exitDx=0;exitDy=0;entryX=1;entryY=0;entryDx=0;entryDy=0;" parent="1" source="FZnKAHAChJolFSwTWyHp-13" target="FZnKAHAChJolFSwTWyHp-10" edge="1">
          <mxGeometry width="160" relative="1" as="geometry">
            <mxPoint x="420" y="160" as="sourcePoint" />
            <mxPoint x="260" y="160" as="targetPoint" />
          </mxGeometry>
        </mxCell>
        <mxCell id="FZnKAHAChJolFSwTWyHp-24" value="" style="endArrow=open;startArrow=none;endFill=0;startFill=0;endSize=8;html=1;verticalAlign=bottom;labelBackgroundColor=none;strokeWidth=1;rounded=0;entryX=0;entryY=0.5;entryDx=0;entryDy=0;" parent="1" source="FZnKAHAChJolFSwTWyHp-1" target="FZnKAHAChJolFSwTWyHp-10" edge="1">
          <mxGeometry width="160" relative="1" as="geometry">
            <mxPoint x="280" y="240" as="sourcePoint" />
            <mxPoint x="440" y="240" as="targetPoint" />
          </mxGeometry>
        </mxCell>
        <mxCell id="FZnKAHAChJolFSwTWyHp-25" value="" style="endArrow=open;startArrow=none;endFill=0;startFill=0;endSize=8;html=1;verticalAlign=bottom;labelBackgroundColor=none;strokeWidth=1;rounded=0;entryX=0;entryY=0.5;entryDx=0;entryDy=0;" parent="1" source="FZnKAHAChJolFSwTWyHp-1" target="FZnKAHAChJolFSwTWyHp-20" edge="1">
          <mxGeometry width="160" relative="1" as="geometry">
            <mxPoint x="250" y="306" as="sourcePoint" />
            <mxPoint x="529" y="230" as="targetPoint" />
          </mxGeometry>
        </mxCell>
        <mxCell id="FZnKAHAChJolFSwTWyHp-26" value="" style="endArrow=open;startArrow=none;endFill=0;startFill=0;endSize=8;html=1;verticalAlign=bottom;labelBackgroundColor=none;strokeWidth=1;rounded=0;entryX=0;entryY=0.5;entryDx=0;entryDy=0;" parent="1" source="FZnKAHAChJolFSwTWyHp-1" target="FZnKAHAChJolFSwTWyHp-19" edge="1">
          <mxGeometry width="160" relative="1" as="geometry">
            <mxPoint x="280" y="240" as="sourcePoint" />
            <mxPoint x="440" y="240" as="targetPoint" />
          </mxGeometry>
        </mxCell>
        <mxCell id="FZnKAHAChJolFSwTWyHp-27" value="" style="endArrow=open;startArrow=none;endFill=0;startFill=0;endSize=8;html=1;verticalAlign=bottom;labelBackgroundColor=none;strokeWidth=1;rounded=0;entryX=0;entryY=0.5;entryDx=0;entryDy=0;" parent="1" source="FZnKAHAChJolFSwTWyHp-1" target="FZnKAHAChJolFSwTWyHp-5" edge="1">
          <mxGeometry width="160" relative="1" as="geometry">
            <mxPoint x="250" y="317" as="sourcePoint" />
            <mxPoint x="519" y="450" as="targetPoint" />
          </mxGeometry>
        </mxCell>
        <mxCell id="FZnKAHAChJolFSwTWyHp-28" value="" style="endArrow=open;startArrow=none;endFill=0;startFill=0;endSize=8;html=1;verticalAlign=bottom;labelBackgroundColor=none;strokeWidth=1;rounded=0;entryX=0;entryY=0.5;entryDx=0;entryDy=0;" parent="1" source="FZnKAHAChJolFSwTWyHp-1" target="FZnKAHAChJolFSwTWyHp-6" edge="1">
          <mxGeometry width="160" relative="1" as="geometry">
            <mxPoint x="250" y="328" as="sourcePoint" />
            <mxPoint x="349" y="450" as="targetPoint" />
          </mxGeometry>
        </mxCell>
        <mxCell id="FZnKAHAChJolFSwTWyHp-29" value="&amp;lt;&amp;lt;include&amp;gt;&amp;gt;" style="html=1;verticalAlign=bottom;labelBackgroundColor=none;endArrow=open;endFill=0;dashed=1;rounded=0;exitX=0;exitY=1;exitDx=0;exitDy=0;entryX=0.665;entryY=0.004;entryDx=0;entryDy=0;entryPerimeter=0;" parent="1" source="FZnKAHAChJolFSwTWyHp-20" target="FZnKAHAChJolFSwTWyHp-5" edge="1">
          <mxGeometry width="160" relative="1" as="geometry">
            <mxPoint x="547" y="251" as="sourcePoint" />
            <mxPoint x="409" y="420" as="targetPoint" />
          </mxGeometry>
        </mxCell>
        <mxCell id="FZnKAHAChJolFSwTWyHp-30" value="&amp;lt;&amp;lt;include&amp;gt;&amp;gt;" style="html=1;verticalAlign=bottom;labelBackgroundColor=none;endArrow=open;endFill=0;dashed=1;rounded=0;exitX=0;exitY=1;exitDx=0;exitDy=0;entryX=1;entryY=0;entryDx=0;entryDy=0;" parent="1" source="FZnKAHAChJolFSwTWyHp-19" target="FZnKAHAChJolFSwTWyHp-5" edge="1">
          <mxGeometry width="160" relative="1" as="geometry">
            <mxPoint x="537" y="281" as="sourcePoint" />
            <mxPoint x="450" y="410" as="targetPoint" />
          </mxGeometry>
        </mxCell>
        <mxCell id="FZnKAHAChJolFSwTWyHp-31" value="&amp;lt;&amp;lt;extend&amp;gt;&amp;gt;" style="html=1;verticalAlign=bottom;labelBackgroundColor=none;endArrow=open;endFill=0;dashed=1;rounded=0;exitX=0;exitY=0.5;exitDx=0;exitDy=0;entryX=1;entryY=0.5;entryDx=0;entryDy=0;" parent="1" source="FZnKAHAChJolFSwTWyHp-14" target="FZnKAHAChJolFSwTWyHp-10" edge="1">
          <mxGeometry width="160" relative="1" as="geometry">
            <mxPoint x="700" y="120" as="sourcePoint" />
            <mxPoint x="593" y="159" as="targetPoint" />
          </mxGeometry>
        </mxCell>
        <mxCell id="FZnKAHAChJolFSwTWyHp-32" value="&amp;lt;&amp;lt;include&amp;gt;&amp;gt;" style="html=1;verticalAlign=bottom;labelBackgroundColor=none;endArrow=open;endFill=0;dashed=1;rounded=0;entryX=0.5;entryY=0;entryDx=0;entryDy=0;exitX=0.5;exitY=1;exitDx=0;exitDy=0;" parent="1" source="FZnKAHAChJolFSwTWyHp-5" target="FZnKAHAChJolFSwTWyHp-6" edge="1">
          <mxGeometry width="160" relative="1" as="geometry">
            <mxPoint x="550" y="470" as="sourcePoint" />
            <mxPoint x="409" y="420" as="targetPoint" />
          </mxGeometry>
        </mxCell>
        <mxCell id="FZnKAHAChJolFSwTWyHp-33" value="&amp;lt;&amp;lt;include&amp;gt;&amp;gt;" style="html=1;verticalAlign=bottom;labelBackgroundColor=none;endArrow=open;endFill=0;dashed=1;rounded=0;exitX=1;exitY=0.5;exitDx=0;exitDy=0;entryX=0;entryY=0.5;entryDx=0;entryDy=0;" parent="1" source="FZnKAHAChJolFSwTWyHp-6" target="FZnKAHAChJolFSwTWyHp-7" edge="1">
          <mxGeometry width="160" relative="1" as="geometry">
            <mxPoint x="510" y="520" as="sourcePoint" />
            <mxPoint x="500" y="590" as="targetPoint" />
          </mxGeometry>
        </mxCell>
        <mxCell id="FZnKAHAChJolFSwTWyHp-34" value="&amp;lt;&amp;lt;extend&amp;gt;&amp;gt;" style="html=1;verticalAlign=bottom;labelBackgroundColor=none;endArrow=open;endFill=0;dashed=1;rounded=0;exitX=0;exitY=0.5;exitDx=0;exitDy=0;entryX=0.75;entryY=0;entryDx=0;entryDy=0;entryPerimeter=0;" parent="1" source="FZnKAHAChJolFSwTWyHp-16" target="FZnKAHAChJolFSwTWyHp-10" edge="1">
          <mxGeometry width="160" relative="1" as="geometry">
            <mxPoint x="680" y="70" as="sourcePoint" />
            <mxPoint x="592" y="139" as="targetPoint" />
          </mxGeometry>
        </mxCell>
        <mxCell id="FZnKAHAChJolFSwTWyHp-35" value="&amp;lt;&amp;lt;extend&amp;gt;&amp;gt;" style="html=1;verticalAlign=bottom;labelBackgroundColor=none;endArrow=open;endFill=0;dashed=1;rounded=0;exitX=0;exitY=0.5;exitDx=0;exitDy=0;entryX=1;entryY=1;entryDx=0;entryDy=0;" parent="1" source="FZnKAHAChJolFSwTWyHp-17" target="FZnKAHAChJolFSwTWyHp-10" edge="1">
          <mxGeometry width="160" relative="1" as="geometry">
            <mxPoint x="680" y="150" as="sourcePoint" />
            <mxPoint x="610" y="160" as="targetPoint" />
          </mxGeometry>
        </mxCell>
        <mxCell id="FZnKAHAChJolFSwTWyHp-36" value="&amp;lt;&amp;lt;extend&amp;gt;&amp;gt;" style="html=1;verticalAlign=bottom;labelBackgroundColor=none;endArrow=open;endFill=0;dashed=1;rounded=0;exitX=0;exitY=0.5;exitDx=0;exitDy=0;entryX=1;entryY=0;entryDx=0;entryDy=0;" parent="1" source="FZnKAHAChJolFSwTWyHp-11" target="FZnKAHAChJolFSwTWyHp-19" edge="1">
          <mxGeometry width="160" relative="1" as="geometry">
            <mxPoint x="680" y="70" as="sourcePoint" />
            <mxPoint x="592" y="139" as="targetPoint" />
          </mxGeometry>
        </mxCell>
        <mxCell id="FZnKAHAChJolFSwTWyHp-37" value="&amp;lt;&amp;lt;extend&amp;gt;&amp;gt;" style="html=1;verticalAlign=bottom;labelBackgroundColor=none;endArrow=open;endFill=0;dashed=1;rounded=0;exitX=0;exitY=0.5;exitDx=0;exitDy=0;entryX=1;entryY=0.5;entryDx=0;entryDy=0;" parent="1" source="FZnKAHAChJolFSwTWyHp-18" target="FZnKAHAChJolFSwTWyHp-19" edge="1">
          <mxGeometry width="160" relative="1" as="geometry">
            <mxPoint x="680" y="320" as="sourcePoint" />
            <mxPoint x="593" y="339" as="targetPoint" />
          </mxGeometry>
        </mxCell>
        <mxCell id="FZnKAHAChJolFSwTWyHp-38" value="&amp;lt;&amp;lt;extend&amp;gt;&amp;gt;" style="html=1;verticalAlign=bottom;labelBackgroundColor=none;endArrow=open;endFill=0;dashed=1;rounded=0;entryX=1;entryY=1;entryDx=0;entryDy=0;exitX=0;exitY=0.5;exitDx=0;exitDy=0;" parent="1" source="FZnKAHAChJolFSwTWyHp-12" target="FZnKAHAChJolFSwTWyHp-19" edge="1">
          <mxGeometry width="160" relative="1" as="geometry">
            <mxPoint x="680" y="400" as="sourcePoint" />
            <mxPoint x="610" y="360" as="targetPoint" />
          </mxGeometry>
        </mxCell>
        <mxCell id="FZnKAHAChJolFSwTWyHp-39" value="&amp;lt;&amp;lt;extend&amp;gt;&amp;gt;" style="html=1;verticalAlign=bottom;labelBackgroundColor=none;endArrow=open;endFill=0;dashed=1;rounded=0;entryX=0.5;entryY=1;entryDx=0;entryDy=0;exitX=0;exitY=0.5;exitDx=0;exitDy=0;" parent="1" source="FZnKAHAChJolFSwTWyHp-15" target="FZnKAHAChJolFSwTWyHp-19" edge="1">
          <mxGeometry width="160" relative="1" as="geometry">
            <mxPoint x="680" y="480" as="sourcePoint" />
            <mxPoint x="592" y="381" as="targetPoint" />
          </mxGeometry>
        </mxCell>
        <mxCell id="FZnKAHAChJolFSwTWyHp-45" value="Re-SFX&amp;nbsp;" style="text;strokeColor=none;align=center;fillColor=none;html=1;verticalAlign=middle;whiteSpace=wrap;rounded=0;" parent="1" vertex="1">
          <mxGeometry x="339" y="-50" width="60" height="30" as="geometry" />
        </mxCell>
      </root>
    </mxGraphModel>
  </diagram>
  <diagram id="X-o54jJXnpy0lRvDTPty" name="Acitivity Diagram">
    <mxGraphModel dx="2074" dy="2000" grid="1" gridSize="10" guides="1" tooltips="1" connect="1" arrows="1" fold="1" page="1" pageScale="1" pageWidth="1100" pageHeight="850" math="0" shadow="0">
      <root>
        <mxCell id="0" />
        <mxCell id="1" parent="0" />
        <mxCell id="lkhdZQPyH7eRF5v3a6Mk-1" value="" style="strokeWidth=2;html=1;shape=mxgraph.flowchart.start_2;whiteSpace=wrap;" parent="1" vertex="1">
          <mxGeometry x="170" y="-20" width="40" height="40" as="geometry" />
        </mxCell>
        <mxCell id="lkhdZQPyH7eRF5v3a6Mk-3" value="" style="shape=ellipse;html=1;dashed=0;whiteSpace=wrap;aspect=fixed;strokeWidth=5;perimeter=ellipsePerimeter;" parent="1" vertex="1">
          <mxGeometry x="170" y="530" width="40" height="40" as="geometry" />
        </mxCell>
        <mxCell id="lkhdZQPyH7eRF5v3a6Mk-6" value="" style="rhombus;whiteSpace=wrap;html=1;" parent="1" vertex="1">
          <mxGeometry x="182.5" y="70" width="15" height="30" as="geometry" />
        </mxCell>
        <mxCell id="lkhdZQPyH7eRF5v3a6Mk-7" value="Input username and password" style="rounded=1;whiteSpace=wrap;html=1;" parent="1" vertex="1">
          <mxGeometry x="120" y="270" width="140" height="50" as="geometry" />
        </mxCell>
        <mxCell id="ORejQCSZDQkYW8F9jk1t-1" value="[have an account]" style="html=1;verticalAlign=bottom;labelBackgroundColor=none;endArrow=open;endFill=0;dashed=0;rounded=0;exitX=0.5;exitY=1;exitDx=0;exitDy=0;entryX=0.5;entryY=0;entryDx=0;entryDy=0;" parent="1" source="lkhdZQPyH7eRF5v3a6Mk-6" target="lkhdZQPyH7eRF5v3a6Mk-7" edge="1">
          <mxGeometry x="-0.0243" y="-51" width="160" relative="1" as="geometry">
            <mxPoint x="415" y="310" as="sourcePoint" />
            <mxPoint x="575" y="310" as="targetPoint" />
            <mxPoint as="offset" />
          </mxGeometry>
        </mxCell>
        <mxCell id="ORejQCSZDQkYW8F9jk1t-2" value="Register" style="rounded=1;whiteSpace=wrap;html=1;" parent="1" vertex="1">
          <mxGeometry x="325" y="60" width="140" height="50" as="geometry" />
        </mxCell>
        <mxCell id="ORejQCSZDQkYW8F9jk1t-3" value="" style="rhombus;whiteSpace=wrap;html=1;" parent="1" vertex="1">
          <mxGeometry x="182.5" y="350" width="15" height="30" as="geometry" />
        </mxCell>
        <mxCell id="ORejQCSZDQkYW8F9jk1t-4" value="" style="html=1;verticalAlign=bottom;labelBackgroundColor=none;endArrow=open;endFill=0;dashed=0;rounded=0;exitX=0.5;exitY=1;exitDx=0;exitDy=0;entryX=0.5;entryY=0;entryDx=0;entryDy=0;" parent="1" source="lkhdZQPyH7eRF5v3a6Mk-7" target="ORejQCSZDQkYW8F9jk1t-3" edge="1">
          <mxGeometry x="0.25" y="-50" width="160" relative="1" as="geometry">
            <mxPoint x="250" y="390" as="sourcePoint" />
            <mxPoint x="250" y="480" as="targetPoint" />
            <mxPoint as="offset" />
          </mxGeometry>
        </mxCell>
        <mxCell id="ORejQCSZDQkYW8F9jk1t-5" value="[verified]" style="html=1;verticalAlign=bottom;labelBackgroundColor=none;endArrow=open;endFill=0;dashed=0;rounded=0;exitX=0.5;exitY=1;exitDx=0;exitDy=0;entryX=0.5;entryY=0;entryDx=0;entryDy=0;" parent="1" source="ORejQCSZDQkYW8F9jk1t-3" target="ORejQCSZDQkYW8F9jk1t-6" edge="1">
          <mxGeometry y="-30" width="160" relative="1" as="geometry">
            <mxPoint x="189.8" y="410" as="sourcePoint" />
            <mxPoint x="190" y="430" as="targetPoint" />
            <mxPoint as="offset" />
          </mxGeometry>
        </mxCell>
        <mxCell id="ORejQCSZDQkYW8F9jk1t-6" value="View all SFX" style="rounded=1;whiteSpace=wrap;html=1;" parent="1" vertex="1">
          <mxGeometry x="120" y="430" width="140" height="50" as="geometry" />
        </mxCell>
        <mxCell id="ORejQCSZDQkYW8F9jk1t-7" value="" style="html=1;verticalAlign=bottom;labelBackgroundColor=none;endArrow=open;endFill=0;dashed=0;rounded=0;exitX=0.5;exitY=1;exitDx=0;exitDy=0;entryX=0.5;entryY=0;entryDx=0;entryDy=0;exitPerimeter=0;" parent="1" source="lkhdZQPyH7eRF5v3a6Mk-1" target="lkhdZQPyH7eRF5v3a6Mk-6" edge="1">
          <mxGeometry x="0.25" y="-50" width="160" relative="1" as="geometry">
            <mxPoint x="209.6" y="20" as="sourcePoint" />
            <mxPoint x="209.6" y="50" as="targetPoint" />
            <mxPoint as="offset" />
          </mxGeometry>
        </mxCell>
        <mxCell id="ORejQCSZDQkYW8F9jk1t-8" value="" style="html=1;verticalAlign=bottom;labelBackgroundColor=none;endArrow=open;endFill=0;dashed=0;rounded=0;exitX=0.5;exitY=1;exitDx=0;exitDy=0;entryX=0.5;entryY=0;entryDx=0;entryDy=0;" parent="1" source="ORejQCSZDQkYW8F9jk1t-6" target="lkhdZQPyH7eRF5v3a6Mk-3" edge="1">
          <mxGeometry x="0.25" y="-50" width="160" relative="1" as="geometry">
            <mxPoint x="320" y="445" as="sourcePoint" />
            <mxPoint x="320" y="495" as="targetPoint" />
            <mxPoint as="offset" />
          </mxGeometry>
        </mxCell>
        <mxCell id="ORejQCSZDQkYW8F9jk1t-9" value="[don&#39;t have an account]" style="html=1;verticalAlign=bottom;labelBackgroundColor=none;endArrow=open;endFill=0;dashed=0;rounded=0;exitX=1;exitY=0.5;exitDx=0;exitDy=0;entryX=0;entryY=0.5;entryDx=0;entryDy=0;" parent="1" source="lkhdZQPyH7eRF5v3a6Mk-6" target="ORejQCSZDQkYW8F9jk1t-2" edge="1">
          <mxGeometry x="0.0175" y="5" width="160" relative="1" as="geometry">
            <mxPoint x="200" y="110" as="sourcePoint" />
            <mxPoint x="200" y="160" as="targetPoint" />
            <mxPoint as="offset" />
          </mxGeometry>
        </mxCell>
        <mxCell id="ORejQCSZDQkYW8F9jk1t-10" value="Input username, email , and password" style="rounded=1;whiteSpace=wrap;html=1;" parent="1" vertex="1">
          <mxGeometry x="310" y="150" width="170" height="50" as="geometry" />
        </mxCell>
        <mxCell id="ORejQCSZDQkYW8F9jk1t-11" value="" style="html=1;verticalAlign=bottom;labelBackgroundColor=none;endArrow=open;endFill=0;dashed=0;rounded=0;exitX=0.5;exitY=1;exitDx=0;exitDy=0;entryX=0.5;entryY=0;entryDx=0;entryDy=0;" parent="1" source="ORejQCSZDQkYW8F9jk1t-2" target="ORejQCSZDQkYW8F9jk1t-10" edge="1">
          <mxGeometry x="0.25" y="-50" width="160" relative="1" as="geometry">
            <mxPoint x="360" y="250" as="sourcePoint" />
            <mxPoint x="360" y="280" as="targetPoint" />
            <mxPoint as="offset" />
          </mxGeometry>
        </mxCell>
        <mxCell id="ORejQCSZDQkYW8F9jk1t-12" value="[error]" style="html=1;verticalAlign=bottom;labelBackgroundColor=none;endArrow=open;endFill=0;dashed=0;rounded=0;exitX=1;exitY=0.5;exitDx=0;exitDy=0;entryX=1;entryY=0.5;entryDx=0;entryDy=0;" parent="1" source="ORejQCSZDQkYW8F9jk1t-3" target="lkhdZQPyH7eRF5v3a6Mk-7" edge="1">
          <mxGeometry x="-0.5072" y="5" width="160" relative="1" as="geometry">
            <mxPoint x="270" y="360" as="sourcePoint" />
            <mxPoint x="270" y="410" as="targetPoint" />
            <mxPoint as="offset" />
            <Array as="points">
              <mxPoint x="280" y="365" />
              <mxPoint x="280" y="295" />
            </Array>
          </mxGeometry>
        </mxCell>
        <mxCell id="ORejQCSZDQkYW8F9jk1t-13" value="" style="rhombus;whiteSpace=wrap;html=1;" parent="1" vertex="1">
          <mxGeometry x="387.5" y="230" width="15" height="30" as="geometry" />
        </mxCell>
        <mxCell id="ORejQCSZDQkYW8F9jk1t-14" value="" style="html=1;verticalAlign=bottom;labelBackgroundColor=none;endArrow=open;endFill=0;dashed=0;rounded=0;exitX=0.5;exitY=1;exitDx=0;exitDy=0;entryX=0.5;entryY=0;entryDx=0;entryDy=0;" parent="1" source="ORejQCSZDQkYW8F9jk1t-10" target="ORejQCSZDQkYW8F9jk1t-13" edge="1">
          <mxGeometry x="0.25" y="-50" width="160" relative="1" as="geometry">
            <mxPoint x="330" y="340" as="sourcePoint" />
            <mxPoint x="330" y="370" as="targetPoint" />
            <mxPoint as="offset" />
          </mxGeometry>
        </mxCell>
        <mxCell id="ORejQCSZDQkYW8F9jk1t-15" value="[verified]" style="html=1;verticalAlign=bottom;labelBackgroundColor=none;endArrow=open;endFill=0;dashed=0;rounded=0;exitX=0;exitY=0.5;exitDx=0;exitDy=0;entryX=0.5;entryY=0;entryDx=0;entryDy=0;" parent="1" source="ORejQCSZDQkYW8F9jk1t-13" target="lkhdZQPyH7eRF5v3a6Mk-7" edge="1">
          <mxGeometry x="-0.0337" y="-5" width="160" relative="1" as="geometry">
            <mxPoint x="340" y="240" as="sourcePoint" />
            <mxPoint x="340" y="290" as="targetPoint" />
            <mxPoint as="offset" />
            <Array as="points">
              <mxPoint x="190" y="245" />
            </Array>
          </mxGeometry>
        </mxCell>
        <mxCell id="ORejQCSZDQkYW8F9jk1t-16" value="[username already exist]" style="html=1;verticalAlign=bottom;labelBackgroundColor=none;endArrow=open;endFill=0;dashed=0;rounded=0;exitX=1;exitY=0.5;exitDx=0;exitDy=0;entryX=1;entryY=0.5;entryDx=0;entryDy=0;" parent="1" source="ORejQCSZDQkYW8F9jk1t-13" target="ORejQCSZDQkYW8F9jk1t-10" edge="1">
          <mxGeometry x="-0.5072" y="5" width="160" relative="1" as="geometry">
            <mxPoint x="430" y="250" as="sourcePoint" />
            <mxPoint x="492" y="180" as="targetPoint" />
            <mxPoint as="offset" />
            <Array as="points">
              <mxPoint x="530" y="245" />
              <mxPoint x="530" y="175" />
            </Array>
          </mxGeometry>
        </mxCell>
        <mxCell id="rcbMxeLNNXhaSHYTBL-8-1" value="" style="strokeWidth=2;html=1;shape=mxgraph.flowchart.start_2;whiteSpace=wrap;" parent="1" vertex="1">
          <mxGeometry x="720" y="-20" width="40" height="40" as="geometry" />
        </mxCell>
        <mxCell id="rcbMxeLNNXhaSHYTBL-8-2" value="Browse and select mp3/wav file locally" style="rounded=1;whiteSpace=wrap;html=1;" parent="1" vertex="1">
          <mxGeometry x="670" y="60" width="140" height="50" as="geometry" />
        </mxCell>
        <mxCell id="rcbMxeLNNXhaSHYTBL-8-3" value="" style="html=1;verticalAlign=bottom;labelBackgroundColor=none;endArrow=open;endFill=0;dashed=0;rounded=0;exitX=0.5;exitY=1;exitDx=0;exitDy=0;entryX=0.5;entryY=0;entryDx=0;entryDy=0;exitPerimeter=0;" parent="1" source="rcbMxeLNNXhaSHYTBL-8-1" target="rcbMxeLNNXhaSHYTBL-8-2" edge="1">
          <mxGeometry x="0.25" y="-50" width="160" relative="1" as="geometry">
            <mxPoint x="640" y="60" as="sourcePoint" />
            <mxPoint x="640" y="110" as="targetPoint" />
            <mxPoint as="offset" />
          </mxGeometry>
        </mxCell>
        <mxCell id="rcbMxeLNNXhaSHYTBL-8-4" value="" style="rhombus;whiteSpace=wrap;html=1;" parent="1" vertex="1">
          <mxGeometry x="732.5" y="140" width="15" height="30" as="geometry" />
        </mxCell>
        <mxCell id="rcbMxeLNNXhaSHYTBL-8-6" value="" style="html=1;verticalAlign=bottom;labelBackgroundColor=none;endArrow=open;endFill=0;dashed=0;rounded=0;exitX=0.5;exitY=1;exitDx=0;exitDy=0;entryX=0.5;entryY=0;entryDx=0;entryDy=0;" parent="1" source="rcbMxeLNNXhaSHYTBL-8-2" target="rcbMxeLNNXhaSHYTBL-8-4" edge="1">
          <mxGeometry x="0.25" y="-50" width="160" relative="1" as="geometry">
            <mxPoint x="860" y="80" as="sourcePoint" />
            <mxPoint x="860" y="120" as="targetPoint" />
            <mxPoint as="offset" />
          </mxGeometry>
        </mxCell>
        <mxCell id="rcbMxeLNNXhaSHYTBL-8-8" value="[confirmed format]" style="html=1;verticalAlign=bottom;labelBackgroundColor=none;endArrow=open;endFill=0;dashed=0;rounded=0;exitX=0.5;exitY=1;exitDx=0;exitDy=0;entryX=0.5;entryY=0;entryDx=0;entryDy=0;" parent="1" source="rcbMxeLNNXhaSHYTBL-8-4" target="rcbMxeLNNXhaSHYTBL-8-10" edge="1">
          <mxGeometry x="-0.0243" y="-51" width="160" relative="1" as="geometry">
            <mxPoint x="747.5" y="190" as="sourcePoint" />
            <mxPoint x="740" y="220" as="targetPoint" />
            <mxPoint as="offset" />
          </mxGeometry>
        </mxCell>
        <mxCell id="rcbMxeLNNXhaSHYTBL-8-9" value="[wrong audio format]" style="html=1;verticalAlign=bottom;labelBackgroundColor=none;endArrow=open;endFill=0;dashed=0;rounded=0;exitX=1;exitY=0.5;exitDx=0;exitDy=0;entryX=1;entryY=0.5;entryDx=0;entryDy=0;" parent="1" source="rcbMxeLNNXhaSHYTBL-8-4" target="rcbMxeLNNXhaSHYTBL-8-2" edge="1">
          <mxGeometry x="-0.5072" y="5" width="160" relative="1" as="geometry">
            <mxPoint x="810" y="160" as="sourcePoint" />
            <mxPoint x="887" y="90" as="targetPoint" />
            <mxPoint as="offset" />
            <Array as="points">
              <mxPoint x="870" y="155" />
              <mxPoint x="870" y="85" />
            </Array>
          </mxGeometry>
        </mxCell>
        <mxCell id="rcbMxeLNNXhaSHYTBL-8-10" value="Input audio name and description" style="rounded=1;whiteSpace=wrap;html=1;" parent="1" vertex="1">
          <mxGeometry x="670" y="210" width="140" height="50" as="geometry" />
        </mxCell>
        <mxCell id="rcbMxeLNNXhaSHYTBL-8-12" value="" style="rhombus;whiteSpace=wrap;html=1;" parent="1" vertex="1">
          <mxGeometry x="732.5" y="290" width="15" height="30" as="geometry" />
        </mxCell>
        <mxCell id="rcbMxeLNNXhaSHYTBL-8-13" value="" style="html=1;verticalAlign=bottom;labelBackgroundColor=none;endArrow=open;endFill=0;dashed=0;rounded=0;exitX=0.5;exitY=1;exitDx=0;exitDy=0;entryX=0.5;entryY=0;entryDx=0;entryDy=0;" parent="1" source="rcbMxeLNNXhaSHYTBL-8-10" target="rcbMxeLNNXhaSHYTBL-8-12" edge="1">
          <mxGeometry x="0.25" y="-50" width="160" relative="1" as="geometry">
            <mxPoint x="740" y="280" as="sourcePoint" />
            <mxPoint x="860" y="290" as="targetPoint" />
            <mxPoint as="offset" />
          </mxGeometry>
        </mxCell>
        <mxCell id="rcbMxeLNNXhaSHYTBL-8-15" value="[add tags]" style="html=1;verticalAlign=bottom;labelBackgroundColor=none;endArrow=open;endFill=0;dashed=0;rounded=0;exitX=0.5;exitY=1;exitDx=0;exitDy=0;entryX=0.5;entryY=0;entryDx=0;entryDy=0;" parent="1" source="rcbMxeLNNXhaSHYTBL-8-12" target="rcbMxeLNNXhaSHYTBL-8-17" edge="1">
          <mxGeometry x="0.0035" y="-30" width="160" relative="1" as="geometry">
            <mxPoint x="739.79" y="340" as="sourcePoint" />
            <mxPoint x="740" y="360" as="targetPoint" />
            <mxPoint as="offset" />
          </mxGeometry>
        </mxCell>
        <mxCell id="rcbMxeLNNXhaSHYTBL-8-16" value="[no tags]" style="html=1;verticalAlign=bottom;labelBackgroundColor=none;endArrow=open;endFill=0;dashed=0;rounded=0;exitX=1;exitY=0.5;exitDx=0;exitDy=0;entryX=1;entryY=0.5;entryDx=0;entryDy=0;" parent="1" source="rcbMxeLNNXhaSHYTBL-8-12" target="rcbMxeLNNXhaSHYTBL-8-17" edge="1">
          <mxGeometry x="-0.4769" y="5" width="160" relative="1" as="geometry">
            <mxPoint x="750" y="330" as="sourcePoint" />
            <mxPoint x="840" y="305" as="targetPoint" />
            <mxPoint as="offset" />
            <Array as="points">
              <mxPoint x="820" y="305" />
              <mxPoint x="820" y="385" />
            </Array>
          </mxGeometry>
        </mxCell>
        <mxCell id="rcbMxeLNNXhaSHYTBL-8-17" value="Confirm upload" style="rounded=1;whiteSpace=wrap;html=1;" parent="1" vertex="1">
          <mxGeometry x="670" y="360" width="140" height="50" as="geometry" />
        </mxCell>
        <mxCell id="rcbMxeLNNXhaSHYTBL-8-18" value="" style="shape=ellipse;html=1;dashed=0;whiteSpace=wrap;aspect=fixed;strokeWidth=5;perimeter=ellipsePerimeter;" parent="1" vertex="1">
          <mxGeometry x="720" y="460" width="40" height="40" as="geometry" />
        </mxCell>
        <mxCell id="rcbMxeLNNXhaSHYTBL-8-19" value="" style="html=1;verticalAlign=bottom;labelBackgroundColor=none;endArrow=open;endFill=0;dashed=0;rounded=0;exitX=0.5;exitY=1;exitDx=0;exitDy=0;entryX=0.5;entryY=0;entryDx=0;entryDy=0;" parent="1" source="rcbMxeLNNXhaSHYTBL-8-17" target="rcbMxeLNNXhaSHYTBL-8-18" edge="1">
          <mxGeometry x="0.25" y="-50" width="160" relative="1" as="geometry">
            <mxPoint x="740" y="430" as="sourcePoint" />
            <mxPoint x="870" y="445" as="targetPoint" />
            <mxPoint as="offset" />
          </mxGeometry>
        </mxCell>
        <mxCell id="fUYI1zMYil8pMYnbGrpK-1" value="Signin and Sign Up" style="text;strokeColor=none;align=center;fillColor=none;html=1;verticalAlign=middle;whiteSpace=wrap;rounded=0;fontStyle=1" parent="1" vertex="1">
          <mxGeometry x="60" y="-30" width="60" height="30" as="geometry" />
        </mxCell>
        <mxCell id="fUYI1zMYil8pMYnbGrpK-2" value="Upload SFX" style="text;strokeColor=none;align=center;fillColor=none;html=1;verticalAlign=middle;whiteSpace=wrap;rounded=0;fontStyle=1" parent="1" vertex="1">
          <mxGeometry x="600" y="-30" width="70" height="30" as="geometry" />
        </mxCell>
        <mxCell id="fUYI1zMYil8pMYnbGrpK-3" value="View all SFX at homepage" style="rounded=1;whiteSpace=wrap;html=1;" parent="1" vertex="1">
          <mxGeometry x="1022.5" y="60" width="140" height="50" as="geometry" />
        </mxCell>
        <mxCell id="amTqHcUuvd-i7VBSjEKz-1" value="Select one SFX" style="rounded=1;whiteSpace=wrap;html=1;" parent="1" vertex="1">
          <mxGeometry x="1022.5" y="150" width="140" height="50" as="geometry" />
        </mxCell>
        <mxCell id="amTqHcUuvd-i7VBSjEKz-2" value="Click love button" style="rounded=1;whiteSpace=wrap;html=1;" parent="1" vertex="1">
          <mxGeometry x="1022.5" y="240" width="140" height="50" as="geometry" />
        </mxCell>
        <mxCell id="7DokJF1dIs4D1w4lOfQZ-2" value="" style="rhombus;whiteSpace=wrap;html=1;" parent="1" vertex="1">
          <mxGeometry x="1085" y="330" width="15" height="30" as="geometry" />
        </mxCell>
        <mxCell id="7DokJF1dIs4D1w4lOfQZ-3" value="" style="html=1;verticalAlign=bottom;labelBackgroundColor=none;endArrow=open;endFill=0;dashed=0;rounded=0;exitX=0.5;exitY=1;exitDx=0;exitDy=0;entryX=0.5;entryY=0;entryDx=0;entryDy=0;" parent="1" source="amTqHcUuvd-i7VBSjEKz-2" target="7DokJF1dIs4D1w4lOfQZ-2" edge="1">
          <mxGeometry x="0.25" y="-50" width="160" relative="1" as="geometry">
            <mxPoint x="1092.5" y="330" as="sourcePoint" />
            <mxPoint x="1212.5" y="360" as="targetPoint" />
            <mxPoint as="offset" />
          </mxGeometry>
        </mxCell>
        <mxCell id="7DokJF1dIs4D1w4lOfQZ-4" value="[confirmed]" style="html=1;verticalAlign=bottom;labelBackgroundColor=none;endArrow=open;endFill=0;dashed=0;rounded=0;exitX=0.5;exitY=1;exitDx=0;exitDy=0;entryX=0.5;entryY=0;entryDx=0;entryDy=0;" parent="1" source="7DokJF1dIs4D1w4lOfQZ-2" target="7DokJF1dIs4D1w4lOfQZ-10" edge="1">
          <mxGeometry y="-32" width="160" relative="1" as="geometry">
            <mxPoint x="1092.29" y="380" as="sourcePoint" />
            <mxPoint x="1092.5" y="400" as="targetPoint" />
            <mxPoint as="offset" />
          </mxGeometry>
        </mxCell>
        <mxCell id="7DokJF1dIs4D1w4lOfQZ-5" value="" style="strokeWidth=2;html=1;shape=mxgraph.flowchart.start_2;whiteSpace=wrap;" parent="1" vertex="1">
          <mxGeometry x="1072.5" y="-20" width="40" height="40" as="geometry" />
        </mxCell>
        <mxCell id="7DokJF1dIs4D1w4lOfQZ-6" value="" style="html=1;verticalAlign=bottom;labelBackgroundColor=none;endArrow=open;endFill=0;dashed=0;rounded=0;exitX=0.5;exitY=1;exitDx=0;exitDy=0;entryX=0.5;entryY=0;entryDx=0;entryDy=0;exitPerimeter=0;" parent="1" source="7DokJF1dIs4D1w4lOfQZ-5" target="fUYI1zMYil8pMYnbGrpK-3" edge="1">
          <mxGeometry x="0.25" y="-50" width="160" relative="1" as="geometry">
            <mxPoint x="992.5" y="60" as="sourcePoint" />
            <mxPoint x="1092.5" y="60" as="targetPoint" />
            <mxPoint as="offset" />
          </mxGeometry>
        </mxCell>
        <mxCell id="7DokJF1dIs4D1w4lOfQZ-7" value="" style="html=1;verticalAlign=bottom;labelBackgroundColor=none;endArrow=open;endFill=0;dashed=0;rounded=0;entryX=0.5;entryY=0;entryDx=0;entryDy=0;exitX=0.5;exitY=1;exitDx=0;exitDy=0;" parent="1" source="fUYI1zMYil8pMYnbGrpK-3" target="amTqHcUuvd-i7VBSjEKz-1" edge="1">
          <mxGeometry x="0.25" y="-50" width="160" relative="1" as="geometry">
            <mxPoint x="1100" y="120" as="sourcePoint" />
            <mxPoint x="1112.5" y="160" as="targetPoint" />
            <mxPoint as="offset" />
          </mxGeometry>
        </mxCell>
        <mxCell id="7DokJF1dIs4D1w4lOfQZ-8" value="" style="html=1;verticalAlign=bottom;labelBackgroundColor=none;endArrow=open;endFill=0;dashed=0;rounded=0;exitX=0.5;exitY=1;exitDx=0;exitDy=0;entryX=0.5;entryY=0;entryDx=0;entryDy=0;" parent="1" source="amTqHcUuvd-i7VBSjEKz-1" target="amTqHcUuvd-i7VBSjEKz-2" edge="1">
          <mxGeometry x="0.25" y="-50" width="160" relative="1" as="geometry">
            <mxPoint x="1092.35" y="210" as="sourcePoint" />
            <mxPoint x="1092" y="230" as="targetPoint" />
            <mxPoint as="offset" />
          </mxGeometry>
        </mxCell>
        <mxCell id="7DokJF1dIs4D1w4lOfQZ-9" value="[error]" style="html=1;verticalAlign=bottom;labelBackgroundColor=none;endArrow=open;endFill=0;dashed=0;rounded=0;exitX=1;exitY=0.5;exitDx=0;exitDy=0;entryX=1;entryY=0.5;entryDx=0;entryDy=0;" parent="1" source="7DokJF1dIs4D1w4lOfQZ-2" target="amTqHcUuvd-i7VBSjEKz-2" edge="1">
          <mxGeometry x="-0.5072" y="5" width="160" relative="1" as="geometry">
            <mxPoint x="1112.5" y="350" as="sourcePoint" />
            <mxPoint x="1174.5" y="280" as="targetPoint" />
            <mxPoint as="offset" />
            <Array as="points">
              <mxPoint x="1200" y="345" />
              <mxPoint x="1200" y="265" />
            </Array>
          </mxGeometry>
        </mxCell>
        <mxCell id="7DokJF1dIs4D1w4lOfQZ-10" value="View SFX at favourites page" style="rounded=1;whiteSpace=wrap;html=1;" parent="1" vertex="1">
          <mxGeometry x="1022.5" y="400" width="140" height="50" as="geometry" />
        </mxCell>
        <mxCell id="7DokJF1dIs4D1w4lOfQZ-11" value="" style="shape=ellipse;html=1;dashed=0;whiteSpace=wrap;aspect=fixed;strokeWidth=5;perimeter=ellipsePerimeter;" parent="1" vertex="1">
          <mxGeometry x="1072.5" y="500" width="40" height="40" as="geometry" />
        </mxCell>
        <mxCell id="7DokJF1dIs4D1w4lOfQZ-12" value="" style="html=1;verticalAlign=bottom;labelBackgroundColor=none;endArrow=open;endFill=0;dashed=0;rounded=0;exitX=0.5;exitY=1;exitDx=0;exitDy=0;entryX=0.5;entryY=0;entryDx=0;entryDy=0;" parent="1" source="7DokJF1dIs4D1w4lOfQZ-10" target="7DokJF1dIs4D1w4lOfQZ-11" edge="1">
          <mxGeometry x="0.25" y="-50" width="160" relative="1" as="geometry">
            <mxPoint x="1092.5" y="460" as="sourcePoint" />
            <mxPoint x="1222.5" y="495" as="targetPoint" />
            <mxPoint as="offset" />
          </mxGeometry>
        </mxCell>
        <mxCell id="7DokJF1dIs4D1w4lOfQZ-13" value="Add to favourite" style="text;strokeColor=none;align=center;fillColor=none;html=1;verticalAlign=middle;whiteSpace=wrap;rounded=0;fontStyle=1" parent="1" vertex="1">
          <mxGeometry x="952.5" y="-30" width="70" height="30" as="geometry" />
        </mxCell>
        <mxCell id="7DokJF1dIs4D1w4lOfQZ-28" value="View all SFX at homepage" style="rounded=1;whiteSpace=wrap;html=1;" parent="1" vertex="1">
          <mxGeometry x="1310" y="60" width="140" height="50" as="geometry" />
        </mxCell>
        <mxCell id="7DokJF1dIs4D1w4lOfQZ-29" value="Select one SFX" style="rounded=1;whiteSpace=wrap;html=1;" parent="1" vertex="1">
          <mxGeometry x="1310" y="150" width="140" height="50" as="geometry" />
        </mxCell>
        <mxCell id="7DokJF1dIs4D1w4lOfQZ-30" value="Click love button" style="rounded=1;whiteSpace=wrap;html=1;" parent="1" vertex="1">
          <mxGeometry x="1310" y="240" width="140" height="50" as="geometry" />
        </mxCell>
        <mxCell id="7DokJF1dIs4D1w4lOfQZ-31" value="" style="rhombus;whiteSpace=wrap;html=1;" parent="1" vertex="1">
          <mxGeometry x="1372.5" y="330" width="15" height="30" as="geometry" />
        </mxCell>
        <mxCell id="7DokJF1dIs4D1w4lOfQZ-32" value="" style="html=1;verticalAlign=bottom;labelBackgroundColor=none;endArrow=open;endFill=0;dashed=0;rounded=0;exitX=0.5;exitY=1;exitDx=0;exitDy=0;entryX=0.5;entryY=0;entryDx=0;entryDy=0;" parent="1" source="7DokJF1dIs4D1w4lOfQZ-30" target="7DokJF1dIs4D1w4lOfQZ-31" edge="1">
          <mxGeometry x="0.25" y="-50" width="160" relative="1" as="geometry">
            <mxPoint x="1380" y="330" as="sourcePoint" />
            <mxPoint x="1500" y="360" as="targetPoint" />
            <mxPoint as="offset" />
          </mxGeometry>
        </mxCell>
        <mxCell id="7DokJF1dIs4D1w4lOfQZ-33" value="[confirmed]" style="html=1;verticalAlign=bottom;labelBackgroundColor=none;endArrow=open;endFill=0;dashed=0;rounded=0;exitX=0.5;exitY=1;exitDx=0;exitDy=0;entryX=0.5;entryY=0;entryDx=0;entryDy=0;" parent="1" source="7DokJF1dIs4D1w4lOfQZ-31" target="7DokJF1dIs4D1w4lOfQZ-40" edge="1">
          <mxGeometry y="-32" width="160" relative="1" as="geometry">
            <mxPoint x="1379.79" y="380" as="sourcePoint" />
            <mxPoint x="1380" y="400" as="targetPoint" />
            <mxPoint as="offset" />
          </mxGeometry>
        </mxCell>
        <mxCell id="7DokJF1dIs4D1w4lOfQZ-34" value="" style="strokeWidth=2;html=1;shape=mxgraph.flowchart.start_2;whiteSpace=wrap;" parent="1" vertex="1">
          <mxGeometry x="1360" y="-20" width="40" height="40" as="geometry" />
        </mxCell>
        <mxCell id="7DokJF1dIs4D1w4lOfQZ-35" value="" style="html=1;verticalAlign=bottom;labelBackgroundColor=none;endArrow=open;endFill=0;dashed=0;rounded=0;exitX=0.5;exitY=1;exitDx=0;exitDy=0;entryX=0.5;entryY=0;entryDx=0;entryDy=0;exitPerimeter=0;" parent="1" source="7DokJF1dIs4D1w4lOfQZ-34" target="7DokJF1dIs4D1w4lOfQZ-28" edge="1">
          <mxGeometry x="0.25" y="-50" width="160" relative="1" as="geometry">
            <mxPoint x="1280" y="60" as="sourcePoint" />
            <mxPoint x="1380" y="60" as="targetPoint" />
            <mxPoint as="offset" />
          </mxGeometry>
        </mxCell>
        <mxCell id="7DokJF1dIs4D1w4lOfQZ-36" value="" style="html=1;verticalAlign=bottom;labelBackgroundColor=none;endArrow=open;endFill=0;dashed=0;rounded=0;entryX=0.5;entryY=0;entryDx=0;entryDy=0;exitX=0.5;exitY=1;exitDx=0;exitDy=0;" parent="1" source="7DokJF1dIs4D1w4lOfQZ-28" target="7DokJF1dIs4D1w4lOfQZ-29" edge="1">
          <mxGeometry x="0.25" y="-50" width="160" relative="1" as="geometry">
            <mxPoint x="1387.5" y="120" as="sourcePoint" />
            <mxPoint x="1400" y="160" as="targetPoint" />
            <mxPoint as="offset" />
          </mxGeometry>
        </mxCell>
        <mxCell id="7DokJF1dIs4D1w4lOfQZ-37" value="" style="html=1;verticalAlign=bottom;labelBackgroundColor=none;endArrow=open;endFill=0;dashed=0;rounded=0;exitX=0.5;exitY=1;exitDx=0;exitDy=0;entryX=0.5;entryY=0;entryDx=0;entryDy=0;" parent="1" source="7DokJF1dIs4D1w4lOfQZ-29" target="7DokJF1dIs4D1w4lOfQZ-30" edge="1">
          <mxGeometry x="0.25" y="-50" width="160" relative="1" as="geometry">
            <mxPoint x="1379.85" y="210" as="sourcePoint" />
            <mxPoint x="1379.5" y="230" as="targetPoint" />
            <mxPoint as="offset" />
          </mxGeometry>
        </mxCell>
        <mxCell id="7DokJF1dIs4D1w4lOfQZ-38" value="[error]" style="html=1;verticalAlign=bottom;labelBackgroundColor=none;endArrow=open;endFill=0;dashed=0;rounded=0;exitX=1;exitY=0.5;exitDx=0;exitDy=0;entryX=1;entryY=0.5;entryDx=0;entryDy=0;" parent="1" source="7DokJF1dIs4D1w4lOfQZ-31" target="7DokJF1dIs4D1w4lOfQZ-30" edge="1">
          <mxGeometry x="-0.5072" y="5" width="160" relative="1" as="geometry">
            <mxPoint x="1400" y="350" as="sourcePoint" />
            <mxPoint x="1462" y="280" as="targetPoint" />
            <mxPoint as="offset" />
            <Array as="points">
              <mxPoint x="1487.5" y="345" />
              <mxPoint x="1487.5" y="265" />
            </Array>
          </mxGeometry>
        </mxCell>
        <mxCell id="7DokJF1dIs4D1w4lOfQZ-40" value="" style="shape=ellipse;html=1;dashed=0;whiteSpace=wrap;aspect=fixed;strokeWidth=5;perimeter=ellipsePerimeter;" parent="1" vertex="1">
          <mxGeometry x="1360" y="420" width="40" height="40" as="geometry" />
        </mxCell>
        <mxCell id="7DokJF1dIs4D1w4lOfQZ-42" value="Remove favourite" style="text;strokeColor=none;align=center;fillColor=none;html=1;verticalAlign=middle;whiteSpace=wrap;rounded=0;fontStyle=1" parent="1" vertex="1">
          <mxGeometry x="1250" y="-30" width="70" height="30" as="geometry" />
        </mxCell>
        <mxCell id="3IU2w4Bj6kVLGC421bFm-1" value="View all SFX at homepage" style="rounded=1;whiteSpace=wrap;html=1;" parent="1" vertex="1">
          <mxGeometry x="1630" y="60" width="140" height="50" as="geometry" />
        </mxCell>
        <mxCell id="3IU2w4Bj6kVLGC421bFm-2" value="" style="strokeWidth=2;html=1;shape=mxgraph.flowchart.start_2;whiteSpace=wrap;" parent="1" vertex="1">
          <mxGeometry x="1680" y="-20" width="40" height="40" as="geometry" />
        </mxCell>
        <mxCell id="3IU2w4Bj6kVLGC421bFm-3" value="" style="html=1;verticalAlign=bottom;labelBackgroundColor=none;endArrow=open;endFill=0;dashed=0;rounded=0;exitX=0.5;exitY=1;exitDx=0;exitDy=0;entryX=0.5;entryY=0;entryDx=0;entryDy=0;exitPerimeter=0;" parent="1" source="3IU2w4Bj6kVLGC421bFm-2" target="3IU2w4Bj6kVLGC421bFm-1" edge="1">
          <mxGeometry x="0.25" y="-50" width="160" relative="1" as="geometry">
            <mxPoint x="1600" y="60" as="sourcePoint" />
            <mxPoint x="1700" y="60" as="targetPoint" />
            <mxPoint as="offset" />
          </mxGeometry>
        </mxCell>
        <mxCell id="3IU2w4Bj6kVLGC421bFm-4" value="Edit Data" style="text;strokeColor=none;align=center;fillColor=none;html=1;verticalAlign=middle;whiteSpace=wrap;rounded=0;fontStyle=1" parent="1" vertex="1">
          <mxGeometry x="1570" y="-30" width="70" height="30" as="geometry" />
        </mxCell>
        <mxCell id="YBzwPCEIQ2sqcXQZx121-1" value="Select one SFX" style="rounded=1;whiteSpace=wrap;html=1;" parent="1" vertex="1">
          <mxGeometry x="1630" y="150" width="140" height="50" as="geometry" />
        </mxCell>
        <mxCell id="YBzwPCEIQ2sqcXQZx121-2" value="" style="html=1;verticalAlign=bottom;labelBackgroundColor=none;endArrow=open;endFill=0;dashed=0;rounded=0;entryX=0.5;entryY=0;entryDx=0;entryDy=0;exitX=0.5;exitY=1;exitDx=0;exitDy=0;" parent="1" source="3IU2w4Bj6kVLGC421bFm-1" target="YBzwPCEIQ2sqcXQZx121-1" edge="1">
          <mxGeometry x="0.25" y="-50" width="160" relative="1" as="geometry">
            <mxPoint x="1720" y="130" as="sourcePoint" />
            <mxPoint x="1720" y="160" as="targetPoint" />
            <mxPoint as="offset" />
          </mxGeometry>
        </mxCell>
        <mxCell id="YBzwPCEIQ2sqcXQZx121-3" value="Click more option" style="rounded=1;whiteSpace=wrap;html=1;" parent="1" vertex="1">
          <mxGeometry x="1630" y="240" width="140" height="50" as="geometry" />
        </mxCell>
        <mxCell id="YBzwPCEIQ2sqcXQZx121-4" value="" style="html=1;verticalAlign=bottom;labelBackgroundColor=none;endArrow=open;endFill=0;dashed=0;rounded=0;exitX=0.5;exitY=1;exitDx=0;exitDy=0;entryX=0.5;entryY=0;entryDx=0;entryDy=0;" parent="1" source="YBzwPCEIQ2sqcXQZx121-1" target="YBzwPCEIQ2sqcXQZx121-3" edge="1">
          <mxGeometry x="0.25" y="-50" width="160" relative="1" as="geometry">
            <mxPoint x="1390" y="210" as="sourcePoint" />
            <mxPoint x="1390" y="250" as="targetPoint" />
            <mxPoint as="offset" />
          </mxGeometry>
        </mxCell>
        <mxCell id="YBzwPCEIQ2sqcXQZx121-5" value="Click edit data" style="rounded=1;whiteSpace=wrap;html=1;" parent="1" vertex="1">
          <mxGeometry x="1630" y="330" width="140" height="50" as="geometry" />
        </mxCell>
        <mxCell id="YBzwPCEIQ2sqcXQZx121-6" value="" style="html=1;verticalAlign=bottom;labelBackgroundColor=none;endArrow=open;endFill=0;dashed=0;rounded=0;exitX=0.5;exitY=1;exitDx=0;exitDy=0;entryX=0.5;entryY=0;entryDx=0;entryDy=0;" parent="1" source="YBzwPCEIQ2sqcXQZx121-3" target="YBzwPCEIQ2sqcXQZx121-5" edge="1">
          <mxGeometry x="0.25" y="-50" width="160" relative="1" as="geometry">
            <mxPoint x="1700" y="300" as="sourcePoint" />
            <mxPoint x="1390" y="350" as="targetPoint" />
            <mxPoint as="offset" />
          </mxGeometry>
        </mxCell>
        <mxCell id="YBzwPCEIQ2sqcXQZx121-7" value="Input audio new name and description" style="rounded=1;whiteSpace=wrap;html=1;" parent="1" vertex="1">
          <mxGeometry x="1630" y="430" width="140" height="50" as="geometry" />
        </mxCell>
        <mxCell id="YBzwPCEIQ2sqcXQZx121-9" value="" style="html=1;verticalAlign=bottom;labelBackgroundColor=none;endArrow=open;endFill=0;dashed=0;rounded=0;exitX=0.5;exitY=1;exitDx=0;exitDy=0;entryX=0.5;entryY=0;entryDx=0;entryDy=0;" parent="1" source="YBzwPCEIQ2sqcXQZx121-5" target="YBzwPCEIQ2sqcXQZx121-7" edge="1">
          <mxGeometry x="0.25" y="-50" width="160" relative="1" as="geometry">
            <mxPoint x="1707.5" y="400" as="sourcePoint" />
            <mxPoint x="1707.5" y="440" as="targetPoint" />
            <mxPoint as="offset" />
          </mxGeometry>
        </mxCell>
        <mxCell id="YBzwPCEIQ2sqcXQZx121-10" value="" style="html=1;verticalAlign=bottom;labelBackgroundColor=none;endArrow=open;endFill=0;dashed=0;rounded=0;exitX=0.5;exitY=1;exitDx=0;exitDy=0;entryX=0.5;entryY=0;entryDx=0;entryDy=0;" parent="1" source="YBzwPCEIQ2sqcXQZx121-7" target="YBzwPCEIQ2sqcXQZx121-12" edge="1">
          <mxGeometry x="0.25" y="-50" width="160" relative="1" as="geometry">
            <mxPoint x="1660" y="490" as="sourcePoint" />
            <mxPoint x="1700" y="530" as="targetPoint" />
            <mxPoint as="offset" />
          </mxGeometry>
        </mxCell>
        <mxCell id="YBzwPCEIQ2sqcXQZx121-12" value="Save new data" style="rounded=1;whiteSpace=wrap;html=1;" parent="1" vertex="1">
          <mxGeometry x="1630" y="530" width="140" height="50" as="geometry" />
        </mxCell>
        <mxCell id="YBzwPCEIQ2sqcXQZx121-17" value="" style="rhombus;whiteSpace=wrap;html=1;" parent="1" vertex="1">
          <mxGeometry x="1692.5" y="615" width="15" height="30" as="geometry" />
        </mxCell>
        <mxCell id="YBzwPCEIQ2sqcXQZx121-18" value="[confirm edit]" style="html=1;verticalAlign=bottom;labelBackgroundColor=none;endArrow=open;endFill=0;dashed=0;rounded=0;exitX=0.5;exitY=1;exitDx=0;exitDy=0;entryX=0.5;entryY=0;entryDx=0;entryDy=0;" parent="1" source="YBzwPCEIQ2sqcXQZx121-17" target="YBzwPCEIQ2sqcXQZx121-21" edge="1">
          <mxGeometry x="-0.1667" y="-37" width="160" relative="1" as="geometry">
            <mxPoint x="1699.79" y="665" as="sourcePoint" />
            <mxPoint x="1700" y="705" as="targetPoint" />
            <mxPoint x="-1" as="offset" />
          </mxGeometry>
        </mxCell>
        <mxCell id="YBzwPCEIQ2sqcXQZx121-19" value="[cancel]" style="html=1;verticalAlign=bottom;labelBackgroundColor=none;endArrow=open;endFill=0;dashed=0;rounded=0;exitX=1;exitY=0.5;exitDx=0;exitDy=0;entryX=1;entryY=0.5;entryDx=0;entryDy=0;" parent="1" source="YBzwPCEIQ2sqcXQZx121-17" target="YBzwPCEIQ2sqcXQZx121-7" edge="1">
          <mxGeometry x="-0.6585" y="10" width="160" relative="1" as="geometry">
            <mxPoint x="1717.5" y="635" as="sourcePoint" />
            <mxPoint x="1767.5" y="550" as="targetPoint" />
            <mxPoint as="offset" />
            <Array as="points">
              <mxPoint x="1805" y="630" />
              <mxPoint x="1805" y="455" />
            </Array>
          </mxGeometry>
        </mxCell>
        <mxCell id="YBzwPCEIQ2sqcXQZx121-20" value="" style="html=1;verticalAlign=bottom;labelBackgroundColor=none;endArrow=open;endFill=0;dashed=0;rounded=0;exitX=0.5;exitY=1;exitDx=0;exitDy=0;entryX=0.501;entryY=0.086;entryDx=0;entryDy=0;entryPerimeter=0;" parent="1" source="YBzwPCEIQ2sqcXQZx121-12" target="YBzwPCEIQ2sqcXQZx121-17" edge="1">
          <mxGeometry x="0.25" y="-50" width="160" relative="1" as="geometry">
            <mxPoint x="1710" y="490" as="sourcePoint" />
            <mxPoint x="1710" y="540" as="targetPoint" />
            <mxPoint as="offset" />
          </mxGeometry>
        </mxCell>
        <mxCell id="YBzwPCEIQ2sqcXQZx121-21" value="" style="shape=ellipse;html=1;dashed=0;whiteSpace=wrap;aspect=fixed;strokeWidth=5;perimeter=ellipsePerimeter;" parent="1" vertex="1">
          <mxGeometry x="1680" y="700" width="40" height="40" as="geometry" />
        </mxCell>
        <mxCell id="DHqJXs7SvmAhqNWUynWJ-20" value="View all SFX at homepage" style="rounded=1;whiteSpace=wrap;html=1;" parent="1" vertex="1">
          <mxGeometry x="1940" y="60" width="140" height="50" as="geometry" />
        </mxCell>
        <mxCell id="DHqJXs7SvmAhqNWUynWJ-21" value="" style="strokeWidth=2;html=1;shape=mxgraph.flowchart.start_2;whiteSpace=wrap;" parent="1" vertex="1">
          <mxGeometry x="1990" y="-20" width="40" height="40" as="geometry" />
        </mxCell>
        <mxCell id="DHqJXs7SvmAhqNWUynWJ-22" value="" style="html=1;verticalAlign=bottom;labelBackgroundColor=none;endArrow=open;endFill=0;dashed=0;rounded=0;exitX=0.5;exitY=1;exitDx=0;exitDy=0;entryX=0.5;entryY=0;entryDx=0;entryDy=0;exitPerimeter=0;" parent="1" source="DHqJXs7SvmAhqNWUynWJ-21" target="DHqJXs7SvmAhqNWUynWJ-20" edge="1">
          <mxGeometry x="0.25" y="-50" width="160" relative="1" as="geometry">
            <mxPoint x="1910" y="60" as="sourcePoint" />
            <mxPoint x="2010" y="60" as="targetPoint" />
            <mxPoint as="offset" />
          </mxGeometry>
        </mxCell>
        <mxCell id="DHqJXs7SvmAhqNWUynWJ-23" value="Remove SFX" style="text;strokeColor=none;align=center;fillColor=none;html=1;verticalAlign=middle;whiteSpace=wrap;rounded=0;fontStyle=1" parent="1" vertex="1">
          <mxGeometry x="1880" y="-30" width="70" height="30" as="geometry" />
        </mxCell>
        <mxCell id="DHqJXs7SvmAhqNWUynWJ-24" value="Select one SFX" style="rounded=1;whiteSpace=wrap;html=1;" parent="1" vertex="1">
          <mxGeometry x="1940" y="150" width="140" height="50" as="geometry" />
        </mxCell>
        <mxCell id="DHqJXs7SvmAhqNWUynWJ-25" value="" style="html=1;verticalAlign=bottom;labelBackgroundColor=none;endArrow=open;endFill=0;dashed=0;rounded=0;entryX=0.5;entryY=0;entryDx=0;entryDy=0;exitX=0.5;exitY=1;exitDx=0;exitDy=0;" parent="1" source="DHqJXs7SvmAhqNWUynWJ-20" target="DHqJXs7SvmAhqNWUynWJ-24" edge="1">
          <mxGeometry x="0.25" y="-50" width="160" relative="1" as="geometry">
            <mxPoint x="2030" y="130" as="sourcePoint" />
            <mxPoint x="2030" y="160" as="targetPoint" />
            <mxPoint as="offset" />
          </mxGeometry>
        </mxCell>
        <mxCell id="DHqJXs7SvmAhqNWUynWJ-26" value="Click more option" style="rounded=1;whiteSpace=wrap;html=1;" parent="1" vertex="1">
          <mxGeometry x="1940" y="240" width="140" height="50" as="geometry" />
        </mxCell>
        <mxCell id="DHqJXs7SvmAhqNWUynWJ-27" value="" style="html=1;verticalAlign=bottom;labelBackgroundColor=none;endArrow=open;endFill=0;dashed=0;rounded=0;exitX=0.5;exitY=1;exitDx=0;exitDy=0;entryX=0.5;entryY=0;entryDx=0;entryDy=0;" parent="1" source="DHqJXs7SvmAhqNWUynWJ-24" target="DHqJXs7SvmAhqNWUynWJ-26" edge="1">
          <mxGeometry x="0.25" y="-50" width="160" relative="1" as="geometry">
            <mxPoint x="1700" y="210" as="sourcePoint" />
            <mxPoint x="1700" y="250" as="targetPoint" />
            <mxPoint as="offset" />
          </mxGeometry>
        </mxCell>
        <mxCell id="DHqJXs7SvmAhqNWUynWJ-28" value="Click remove sfx" style="rounded=1;whiteSpace=wrap;html=1;" parent="1" vertex="1">
          <mxGeometry x="1940" y="330" width="140" height="50" as="geometry" />
        </mxCell>
        <mxCell id="DHqJXs7SvmAhqNWUynWJ-29" value="" style="html=1;verticalAlign=bottom;labelBackgroundColor=none;endArrow=open;endFill=0;dashed=0;rounded=0;exitX=0.5;exitY=1;exitDx=0;exitDy=0;entryX=0.5;entryY=0;entryDx=0;entryDy=0;" parent="1" source="DHqJXs7SvmAhqNWUynWJ-26" target="DHqJXs7SvmAhqNWUynWJ-28" edge="1">
          <mxGeometry x="0.25" y="-50" width="160" relative="1" as="geometry">
            <mxPoint x="2010" y="300" as="sourcePoint" />
            <mxPoint x="1700" y="350" as="targetPoint" />
            <mxPoint as="offset" />
          </mxGeometry>
        </mxCell>
        <mxCell id="DHqJXs7SvmAhqNWUynWJ-31" value="" style="html=1;verticalAlign=bottom;labelBackgroundColor=none;endArrow=open;endFill=0;dashed=0;rounded=0;exitX=0.5;exitY=1;exitDx=0;exitDy=0;entryX=0.5;entryY=0;entryDx=0;entryDy=0;" parent="1" source="DHqJXs7SvmAhqNWUynWJ-28" target="DHqJXs7SvmAhqNWUynWJ-34" edge="1">
          <mxGeometry x="0.25" y="-50" width="160" relative="1" as="geometry">
            <mxPoint x="2017.5" y="400" as="sourcePoint" />
            <mxPoint x="2010" y="430" as="targetPoint" />
            <mxPoint as="offset" />
          </mxGeometry>
        </mxCell>
        <mxCell id="DHqJXs7SvmAhqNWUynWJ-34" value="" style="rhombus;whiteSpace=wrap;html=1;" parent="1" vertex="1">
          <mxGeometry x="2002.5" y="443" width="15" height="30" as="geometry" />
        </mxCell>
        <mxCell id="DHqJXs7SvmAhqNWUynWJ-35" value="[confirm remove]" style="html=1;verticalAlign=bottom;labelBackgroundColor=none;endArrow=open;endFill=0;dashed=0;rounded=0;exitX=0.5;exitY=1;exitDx=0;exitDy=0;entryX=0.5;entryY=0;entryDx=0;entryDy=0;" parent="1" source="DHqJXs7SvmAhqNWUynWJ-34" target="DHqJXs7SvmAhqNWUynWJ-38" edge="1">
          <mxGeometry x="-0.0182" y="-50" width="160" relative="1" as="geometry">
            <mxPoint x="2009.79" y="493" as="sourcePoint" />
            <mxPoint x="2010" y="533" as="targetPoint" />
            <mxPoint as="offset" />
          </mxGeometry>
        </mxCell>
        <mxCell id="DHqJXs7SvmAhqNWUynWJ-36" value="[cancel]" style="html=1;verticalAlign=bottom;labelBackgroundColor=none;endArrow=open;endFill=0;dashed=0;rounded=0;exitX=1;exitY=0.5;exitDx=0;exitDy=0;entryX=1;entryY=0.5;entryDx=0;entryDy=0;" parent="1" source="DHqJXs7SvmAhqNWUynWJ-34" target="DHqJXs7SvmAhqNWUynWJ-28" edge="1">
          <mxGeometry x="-0.6585" y="10" width="160" relative="1" as="geometry">
            <mxPoint x="2027.5" y="463" as="sourcePoint" />
            <mxPoint x="2080" y="283" as="targetPoint" />
            <mxPoint as="offset" />
            <Array as="points">
              <mxPoint x="2115" y="458" />
              <mxPoint x="2115" y="355" />
            </Array>
          </mxGeometry>
        </mxCell>
        <mxCell id="DHqJXs7SvmAhqNWUynWJ-38" value="" style="shape=ellipse;html=1;dashed=0;whiteSpace=wrap;aspect=fixed;strokeWidth=5;perimeter=ellipsePerimeter;" parent="1" vertex="1">
          <mxGeometry x="1990" y="528" width="40" height="40" as="geometry" />
        </mxCell>
        <mxCell id="DHqJXs7SvmAhqNWUynWJ-40" value="Input keyword on search bar" style="rounded=1;whiteSpace=wrap;html=1;" parent="1" vertex="1">
          <mxGeometry x="2210" y="60" width="150" height="50" as="geometry" />
        </mxCell>
        <mxCell id="DHqJXs7SvmAhqNWUynWJ-41" value="Click search" style="rounded=1;whiteSpace=wrap;html=1;" parent="1" vertex="1">
          <mxGeometry x="2210" y="150" width="150" height="50" as="geometry" />
        </mxCell>
        <mxCell id="DHqJXs7SvmAhqNWUynWJ-42" value="" style="html=1;verticalAlign=bottom;labelBackgroundColor=none;endArrow=open;endFill=0;dashed=0;rounded=0;exitX=0.5;exitY=1;exitDx=0;exitDy=0;entryX=0.5;entryY=0;entryDx=0;entryDy=0;" parent="1" source="DHqJXs7SvmAhqNWUynWJ-40" target="DHqJXs7SvmAhqNWUynWJ-41" edge="1">
          <mxGeometry x="0.25" y="-50" width="160" relative="1" as="geometry">
            <mxPoint x="2170" y="140" as="sourcePoint" />
            <mxPoint x="2170" y="180" as="targetPoint" />
            <mxPoint as="offset" />
          </mxGeometry>
        </mxCell>
        <mxCell id="DHqJXs7SvmAhqNWUynWJ-43" value="" style="strokeWidth=2;html=1;shape=mxgraph.flowchart.start_2;whiteSpace=wrap;" parent="1" vertex="1">
          <mxGeometry x="2265" y="-20" width="40" height="40" as="geometry" />
        </mxCell>
        <mxCell id="DHqJXs7SvmAhqNWUynWJ-44" value="" style="html=1;verticalAlign=bottom;labelBackgroundColor=none;endArrow=open;endFill=0;dashed=0;rounded=0;exitX=0.5;exitY=1;exitDx=0;exitDy=0;exitPerimeter=0;" parent="1" source="DHqJXs7SvmAhqNWUynWJ-43" edge="1">
          <mxGeometry x="0.25" y="-50" width="160" relative="1" as="geometry">
            <mxPoint x="2185" y="60" as="sourcePoint" />
            <mxPoint x="2285" y="60" as="targetPoint" />
            <mxPoint as="offset" />
          </mxGeometry>
        </mxCell>
        <mxCell id="DHqJXs7SvmAhqNWUynWJ-45" value="" style="html=1;verticalAlign=bottom;labelBackgroundColor=none;endArrow=open;endFill=0;dashed=0;rounded=0;exitX=0.5;exitY=1;exitDx=0;exitDy=0;entryX=0.5;entryY=0;entryDx=0;entryDy=0;" parent="1" source="DHqJXs7SvmAhqNWUynWJ-41" target="DHqJXs7SvmAhqNWUynWJ-46" edge="1">
          <mxGeometry x="0.25" y="-50" width="160" relative="1" as="geometry">
            <mxPoint x="2287.5" y="211" as="sourcePoint" />
            <mxPoint x="2287.5" y="261" as="targetPoint" />
            <mxPoint as="offset" />
          </mxGeometry>
        </mxCell>
        <mxCell id="DHqJXs7SvmAhqNWUynWJ-46" value="" style="rhombus;whiteSpace=wrap;html=1;" parent="1" vertex="1">
          <mxGeometry x="2277.5" y="250" width="15" height="30" as="geometry" />
        </mxCell>
        <mxCell id="DHqJXs7SvmAhqNWUynWJ-47" value="[not found]" style="html=1;verticalAlign=bottom;labelBackgroundColor=none;endArrow=open;endFill=0;dashed=0;rounded=0;exitX=1;exitY=0.5;exitDx=0;exitDy=0;entryX=1;entryY=0.5;entryDx=0;entryDy=0;" parent="1" source="DHqJXs7SvmAhqNWUynWJ-46" target="DHqJXs7SvmAhqNWUynWJ-41" edge="1">
          <mxGeometry x="-0.6585" y="10" width="160" relative="1" as="geometry">
            <mxPoint x="2305" y="294" as="sourcePoint" />
            <mxPoint x="2357.5" y="186" as="targetPoint" />
            <mxPoint as="offset" />
            <Array as="points">
              <mxPoint x="2390" y="265" />
              <mxPoint x="2390" y="175" />
            </Array>
          </mxGeometry>
        </mxCell>
        <mxCell id="DHqJXs7SvmAhqNWUynWJ-48" value="[matched]" style="html=1;verticalAlign=bottom;labelBackgroundColor=none;endArrow=open;endFill=0;dashed=0;rounded=0;exitX=0.5;exitY=1;exitDx=0;exitDy=0;entryX=0.5;entryY=0;entryDx=0;entryDy=0;" parent="1" source="DHqJXs7SvmAhqNWUynWJ-46" target="DHqJXs7SvmAhqNWUynWJ-49" edge="1">
          <mxGeometry y="-35" width="160" relative="1" as="geometry">
            <mxPoint x="2284.71" y="295" as="sourcePoint" />
            <mxPoint x="2285" y="340" as="targetPoint" />
            <mxPoint as="offset" />
          </mxGeometry>
        </mxCell>
        <mxCell id="DHqJXs7SvmAhqNWUynWJ-49" value="View result" style="rounded=1;whiteSpace=wrap;html=1;" parent="1" vertex="1">
          <mxGeometry x="2210" y="340" width="150" height="50" as="geometry" />
        </mxCell>
        <mxCell id="DHqJXs7SvmAhqNWUynWJ-50" value="Search&lt;br&gt;&amp;nbsp;SFX" style="text;strokeColor=none;align=center;fillColor=none;html=1;verticalAlign=middle;whiteSpace=wrap;rounded=0;fontStyle=1" parent="1" vertex="1">
          <mxGeometry x="2160" y="-30" width="70" height="30" as="geometry" />
        </mxCell>
      </root>
    </mxGraphModel>
  </diagram>
  <diagram id="mrP117xxtpweVksQx8aY" name="Class Diagram ">
    <mxGraphModel dx="1185" dy="657" grid="1" gridSize="10" guides="1" tooltips="1" connect="1" arrows="1" fold="1" page="1" pageScale="1" pageWidth="1100" pageHeight="850" math="0" shadow="0">
      <root>
        <mxCell id="0" />
        <mxCell id="1" parent="0" />
        <mxCell id="NzYpYTZ_gtOCed9Z5D2k-1" value="Sounds" style="swimlane;fontStyle=1;align=center;verticalAlign=top;childLayout=stackLayout;horizontal=1;startSize=26;horizontalStack=0;resizeParent=1;resizeParentMax=0;resizeLast=0;collapsible=1;marginBottom=0;whiteSpace=wrap;html=1;" parent="1" vertex="1">
          <mxGeometry x="480" y="480" width="180" height="450" as="geometry" />
        </mxCell>
        <mxCell id="NzYpYTZ_gtOCed9Z5D2k-2" value="- soundID: int" style="text;strokeColor=none;fillColor=none;align=left;verticalAlign=top;spacingLeft=4;spacingRight=4;overflow=hidden;rotatable=0;points=[[0,0.5],[1,0.5]];portConstraint=eastwest;whiteSpace=wrap;html=1;" parent="NzYpYTZ_gtOCed9Z5D2k-1" vertex="1">
          <mxGeometry y="26" width="180" height="26" as="geometry" />
        </mxCell>
        <mxCell id="ELuArIgCS2oRIUY0xYUX-5" value="- userID: int" style="text;strokeColor=none;fillColor=none;align=left;verticalAlign=top;spacingLeft=4;spacingRight=4;overflow=hidden;rotatable=0;points=[[0,0.5],[1,0.5]];portConstraint=eastwest;whiteSpace=wrap;html=1;" parent="NzYpYTZ_gtOCed9Z5D2k-1" vertex="1">
          <mxGeometry y="52" width="180" height="26" as="geometry" />
        </mxCell>
        <mxCell id="NzYpYTZ_gtOCed9Z5D2k-6" value="- soundAddress: string" style="text;strokeColor=none;fillColor=none;align=left;verticalAlign=top;spacingLeft=4;spacingRight=4;overflow=hidden;rotatable=0;points=[[0,0.5],[1,0.5]];portConstraint=eastwest;whiteSpace=wrap;html=1;" parent="NzYpYTZ_gtOCed9Z5D2k-1" vertex="1">
          <mxGeometry y="78" width="180" height="26" as="geometry" />
        </mxCell>
        <mxCell id="ELuArIgCS2oRIUY0xYUX-7" value="- soundImage: string" style="text;strokeColor=none;fillColor=none;align=left;verticalAlign=top;spacingLeft=4;spacingRight=4;overflow=hidden;rotatable=0;points=[[0,0.5],[1,0.5]];portConstraint=eastwest;whiteSpace=wrap;html=1;" parent="NzYpYTZ_gtOCed9Z5D2k-1" vertex="1">
          <mxGeometry y="104" width="180" height="26" as="geometry" />
        </mxCell>
        <mxCell id="NzYpYTZ_gtOCed9Z5D2k-7" value="- soundDesc: string" style="text;strokeColor=none;fillColor=none;align=left;verticalAlign=top;spacingLeft=4;spacingRight=4;overflow=hidden;rotatable=0;points=[[0,0.5],[1,0.5]];portConstraint=eastwest;whiteSpace=wrap;html=1;" parent="NzYpYTZ_gtOCed9Z5D2k-1" vertex="1">
          <mxGeometry y="130" width="180" height="26" as="geometry" />
        </mxCell>
        <mxCell id="NzYpYTZ_gtOCed9Z5D2k-8" value="- soundName: string" style="text;strokeColor=none;fillColor=none;align=left;verticalAlign=top;spacingLeft=4;spacingRight=4;overflow=hidden;rotatable=0;points=[[0,0.5],[1,0.5]];portConstraint=eastwest;whiteSpace=wrap;html=1;" parent="NzYpYTZ_gtOCed9Z5D2k-1" vertex="1">
          <mxGeometry y="156" width="180" height="26" as="geometry" />
        </mxCell>
        <mxCell id="NzYpYTZ_gtOCed9Z5D2k-9" value="- soundTags: string" style="text;strokeColor=none;fillColor=none;align=left;verticalAlign=top;spacingLeft=4;spacingRight=4;overflow=hidden;rotatable=0;points=[[0,0.5],[1,0.5]];portConstraint=eastwest;whiteSpace=wrap;html=1;" parent="NzYpYTZ_gtOCed9Z5D2k-1" vertex="1">
          <mxGeometry y="182" width="180" height="26" as="geometry" />
        </mxCell>
        <mxCell id="NzYpYTZ_gtOCed9Z5D2k-3" value="" style="line;strokeWidth=1;fillColor=none;align=left;verticalAlign=middle;spacingTop=-1;spacingLeft=3;spacingRight=3;rotatable=0;labelPosition=right;points=[];portConstraint=eastwest;strokeColor=inherit;" parent="NzYpYTZ_gtOCed9Z5D2k-1" vertex="1">
          <mxGeometry y="208" width="180" height="8" as="geometry" />
        </mxCell>
        <mxCell id="NzYpYTZ_gtOCed9Z5D2k-4" value="+ playSound()" style="text;strokeColor=none;fillColor=none;align=left;verticalAlign=top;spacingLeft=4;spacingRight=4;overflow=hidden;rotatable=0;points=[[0,0.5],[1,0.5]];portConstraint=eastwest;whiteSpace=wrap;html=1;" parent="NzYpYTZ_gtOCed9Z5D2k-1" vertex="1">
          <mxGeometry y="216" width="180" height="26" as="geometry" />
        </mxCell>
        <mxCell id="SAUXwmjHFPoL9CdZHtQB-1" value="+ pauseSound()" style="text;strokeColor=none;fillColor=none;align=left;verticalAlign=top;spacingLeft=4;spacingRight=4;overflow=hidden;rotatable=0;points=[[0,0.5],[1,0.5]];portConstraint=eastwest;whiteSpace=wrap;html=1;" parent="NzYpYTZ_gtOCed9Z5D2k-1" vertex="1">
          <mxGeometry y="242" width="180" height="26" as="geometry" />
        </mxCell>
        <mxCell id="SAUXwmjHFPoL9CdZHtQB-2" value="+ downloadSound()" style="text;strokeColor=none;fillColor=none;align=left;verticalAlign=top;spacingLeft=4;spacingRight=4;overflow=hidden;rotatable=0;points=[[0,0.5],[1,0.5]];portConstraint=eastwest;whiteSpace=wrap;html=1;" parent="NzYpYTZ_gtOCed9Z5D2k-1" vertex="1">
          <mxGeometry y="268" width="180" height="26" as="geometry" />
        </mxCell>
        <mxCell id="SAUXwmjHFPoL9CdZHtQB-3" value="+ editSoundData()" style="text;strokeColor=none;fillColor=none;align=left;verticalAlign=top;spacingLeft=4;spacingRight=4;overflow=hidden;rotatable=0;points=[[0,0.5],[1,0.5]];portConstraint=eastwest;whiteSpace=wrap;html=1;" parent="NzYpYTZ_gtOCed9Z5D2k-1" vertex="1">
          <mxGeometry y="294" width="180" height="26" as="geometry" />
        </mxCell>
        <mxCell id="SAUXwmjHFPoL9CdZHtQB-4" value="+ addToFavourite()" style="text;strokeColor=none;fillColor=none;align=left;verticalAlign=top;spacingLeft=4;spacingRight=4;overflow=hidden;rotatable=0;points=[[0,0.5],[1,0.5]];portConstraint=eastwest;whiteSpace=wrap;html=1;" parent="NzYpYTZ_gtOCed9Z5D2k-1" vertex="1">
          <mxGeometry y="320" width="180" height="26" as="geometry" />
        </mxCell>
        <mxCell id="eFdMYxDxvEatI3bSZIBh-16" value="+ removeFromFavourite()" style="text;strokeColor=none;fillColor=none;align=left;verticalAlign=top;spacingLeft=4;spacingRight=4;overflow=hidden;rotatable=0;points=[[0,0.5],[1,0.5]];portConstraint=eastwest;whiteSpace=wrap;html=1;" parent="NzYpYTZ_gtOCed9Z5D2k-1" vertex="1">
          <mxGeometry y="346" width="180" height="26" as="geometry" />
        </mxCell>
        <mxCell id="BwZUnATLp3sratwRaRFa-1" value="+ shareSound()" style="text;strokeColor=none;fillColor=none;align=left;verticalAlign=top;spacingLeft=4;spacingRight=4;overflow=hidden;rotatable=0;points=[[0,0.5],[1,0.5]];portConstraint=eastwest;whiteSpace=wrap;html=1;" parent="NzYpYTZ_gtOCed9Z5D2k-1" vertex="1">
          <mxGeometry y="372" width="180" height="26" as="geometry" />
        </mxCell>
        <mxCell id="yGZtCZlnp6VBqLOQ-d-b-1" value="+ uploadSound()" style="text;strokeColor=none;fillColor=none;align=left;verticalAlign=top;spacingLeft=4;spacingRight=4;overflow=hidden;rotatable=0;points=[[0,0.5],[1,0.5]];portConstraint=eastwest;whiteSpace=wrap;html=1;" parent="NzYpYTZ_gtOCed9Z5D2k-1" vertex="1">
          <mxGeometry y="398" width="180" height="26" as="geometry" />
        </mxCell>
        <mxCell id="eFdMYxDxvEatI3bSZIBh-1" value="+ deleteSound()" style="text;strokeColor=none;fillColor=none;align=left;verticalAlign=top;spacingLeft=4;spacingRight=4;overflow=hidden;rotatable=0;points=[[0,0.5],[1,0.5]];portConstraint=eastwest;whiteSpace=wrap;html=1;" parent="NzYpYTZ_gtOCed9Z5D2k-1" vertex="1">
          <mxGeometry y="424" width="180" height="26" as="geometry" />
        </mxCell>
        <mxCell id="eFdMYxDxvEatI3bSZIBh-2" value="User" style="swimlane;fontStyle=1;align=center;verticalAlign=top;childLayout=stackLayout;horizontal=1;startSize=26;horizontalStack=0;resizeParent=1;resizeParentMax=0;resizeLast=0;collapsible=1;marginBottom=0;whiteSpace=wrap;html=1;" parent="1" vertex="1">
          <mxGeometry x="220" y="520" width="160" height="216" as="geometry" />
        </mxCell>
        <mxCell id="eFdMYxDxvEatI3bSZIBh-3" value="+ userID: type" style="text;strokeColor=none;fillColor=none;align=left;verticalAlign=top;spacingLeft=4;spacingRight=4;overflow=hidden;rotatable=0;points=[[0,0.5],[1,0.5]];portConstraint=eastwest;whiteSpace=wrap;html=1;" parent="eFdMYxDxvEatI3bSZIBh-2" vertex="1">
          <mxGeometry y="26" width="160" height="26" as="geometry" />
        </mxCell>
        <mxCell id="eFdMYxDxvEatI3bSZIBh-8" value="+ userName: type" style="text;strokeColor=none;fillColor=none;align=left;verticalAlign=top;spacingLeft=4;spacingRight=4;overflow=hidden;rotatable=0;points=[[0,0.5],[1,0.5]];portConstraint=eastwest;whiteSpace=wrap;html=1;" parent="eFdMYxDxvEatI3bSZIBh-2" vertex="1">
          <mxGeometry y="52" width="160" height="26" as="geometry" />
        </mxCell>
        <mxCell id="ELuArIgCS2oRIUY0xYUX-2" value="+ userEmail: type" style="text;strokeColor=none;fillColor=none;align=left;verticalAlign=top;spacingLeft=4;spacingRight=4;overflow=hidden;rotatable=0;points=[[0,0.5],[1,0.5]];portConstraint=eastwest;whiteSpace=wrap;html=1;" parent="eFdMYxDxvEatI3bSZIBh-2" vertex="1">
          <mxGeometry y="78" width="160" height="26" as="geometry" />
        </mxCell>
        <mxCell id="KcLKtv_ntzUyNXb-ebXP-7" value="+ userPassword: type" style="text;strokeColor=none;fillColor=none;align=left;verticalAlign=top;spacingLeft=4;spacingRight=4;overflow=hidden;rotatable=0;points=[[0,0.5],[1,0.5]];portConstraint=eastwest;whiteSpace=wrap;html=1;" parent="eFdMYxDxvEatI3bSZIBh-2" vertex="1">
          <mxGeometry y="104" width="160" height="26" as="geometry" />
        </mxCell>
        <mxCell id="eFdMYxDxvEatI3bSZIBh-9" value="+ soundCount: int" style="text;strokeColor=none;fillColor=none;align=left;verticalAlign=top;spacingLeft=4;spacingRight=4;overflow=hidden;rotatable=0;points=[[0,0.5],[1,0.5]];portConstraint=eastwest;whiteSpace=wrap;html=1;" parent="eFdMYxDxvEatI3bSZIBh-2" vertex="1">
          <mxGeometry y="130" width="160" height="26" as="geometry" />
        </mxCell>
        <mxCell id="eFdMYxDxvEatI3bSZIBh-4" value="" style="line;strokeWidth=1;fillColor=none;align=left;verticalAlign=middle;spacingTop=-1;spacingLeft=3;spacingRight=3;rotatable=0;labelPosition=right;points=[];portConstraint=eastwest;strokeColor=inherit;" parent="eFdMYxDxvEatI3bSZIBh-2" vertex="1">
          <mxGeometry y="156" width="160" height="8" as="geometry" />
        </mxCell>
        <mxCell id="KcLKtv_ntzUyNXb-ebXP-8" value="+ userVerification(): bool" style="text;strokeColor=none;fillColor=none;align=left;verticalAlign=top;spacingLeft=4;spacingRight=4;overflow=hidden;rotatable=0;points=[[0,0.5],[1,0.5]];portConstraint=eastwest;whiteSpace=wrap;html=1;" parent="eFdMYxDxvEatI3bSZIBh-2" vertex="1">
          <mxGeometry y="164" width="160" height="26" as="geometry" />
        </mxCell>
        <mxCell id="eFdMYxDxvEatI3bSZIBh-5" value="+ countSound(): int" style="text;strokeColor=none;fillColor=none;align=left;verticalAlign=top;spacingLeft=4;spacingRight=4;overflow=hidden;rotatable=0;points=[[0,0.5],[1,0.5]];portConstraint=eastwest;whiteSpace=wrap;html=1;" parent="eFdMYxDxvEatI3bSZIBh-2" vertex="1">
          <mxGeometry y="190" width="160" height="26" as="geometry" />
        </mxCell>
        <mxCell id="eFdMYxDxvEatI3bSZIBh-10" value="Favourites" style="swimlane;fontStyle=1;align=center;verticalAlign=top;childLayout=stackLayout;horizontal=1;startSize=26;horizontalStack=0;resizeParent=1;resizeParentMax=0;resizeLast=0;collapsible=1;marginBottom=0;whiteSpace=wrap;html=1;" parent="1" vertex="1">
          <mxGeometry x="220" y="820" width="160" height="164" as="geometry" />
        </mxCell>
        <mxCell id="ELuArIgCS2oRIUY0xYUX-3" value="+ favID: type" style="text;strokeColor=none;fillColor=none;align=left;verticalAlign=top;spacingLeft=4;spacingRight=4;overflow=hidden;rotatable=0;points=[[0,0.5],[1,0.5]];portConstraint=eastwest;whiteSpace=wrap;html=1;" parent="eFdMYxDxvEatI3bSZIBh-10" vertex="1">
          <mxGeometry y="26" width="160" height="26" as="geometry" />
        </mxCell>
        <mxCell id="eFdMYxDxvEatI3bSZIBh-11" value="+ userID: type" style="text;strokeColor=none;fillColor=none;align=left;verticalAlign=top;spacingLeft=4;spacingRight=4;overflow=hidden;rotatable=0;points=[[0,0.5],[1,0.5]];portConstraint=eastwest;whiteSpace=wrap;html=1;" parent="eFdMYxDxvEatI3bSZIBh-10" vertex="1">
          <mxGeometry y="52" width="160" height="26" as="geometry" />
        </mxCell>
        <mxCell id="eFdMYxDxvEatI3bSZIBh-21" value="+ soundIDList: type" style="text;strokeColor=none;fillColor=none;align=left;verticalAlign=top;spacingLeft=4;spacingRight=4;overflow=hidden;rotatable=0;points=[[0,0.5],[1,0.5]];portConstraint=eastwest;whiteSpace=wrap;html=1;" parent="eFdMYxDxvEatI3bSZIBh-10" vertex="1">
          <mxGeometry y="78" width="160" height="26" as="geometry" />
        </mxCell>
        <mxCell id="eFdMYxDxvEatI3bSZIBh-14" value="" style="line;strokeWidth=1;fillColor=none;align=left;verticalAlign=middle;spacingTop=-1;spacingLeft=3;spacingRight=3;rotatable=0;labelPosition=right;points=[];portConstraint=eastwest;strokeColor=inherit;" parent="eFdMYxDxvEatI3bSZIBh-10" vertex="1">
          <mxGeometry y="104" width="160" height="8" as="geometry" />
        </mxCell>
        <mxCell id="eFdMYxDxvEatI3bSZIBh-17" value="+ removeFromFavourite()" style="text;strokeColor=none;fillColor=none;align=left;verticalAlign=top;spacingLeft=4;spacingRight=4;overflow=hidden;rotatable=0;points=[[0,0.5],[1,0.5]];portConstraint=eastwest;whiteSpace=wrap;html=1;" parent="eFdMYxDxvEatI3bSZIBh-10" vertex="1">
          <mxGeometry y="112" width="160" height="26" as="geometry" />
        </mxCell>
        <mxCell id="eFdMYxDxvEatI3bSZIBh-19" value="+ showSoundFav()" style="text;strokeColor=none;fillColor=none;align=left;verticalAlign=top;spacingLeft=4;spacingRight=4;overflow=hidden;rotatable=0;points=[[0,0.5],[1,0.5]];portConstraint=eastwest;whiteSpace=wrap;html=1;" parent="eFdMYxDxvEatI3bSZIBh-10" vertex="1">
          <mxGeometry y="138" width="160" height="26" as="geometry" />
        </mxCell>
        <mxCell id="KcLKtv_ntzUyNXb-ebXP-3" value="" style="endArrow=;html=1;endSize=12;startArrow=diamondThin;startSize=14;startFill=0;edgeStyle=orthogonalEdgeStyle;rounded=0;exitX=0.5;exitY=0;exitDx=0;exitDy=0;entryX=0.5;entryY=0;entryDx=0;entryDy=0;" parent="1" source="eFdMYxDxvEatI3bSZIBh-2" target="NzYpYTZ_gtOCed9Z5D2k-1" edge="1">
          <mxGeometry relative="1" as="geometry">
            <mxPoint x="380" y="520" as="sourcePoint" />
            <mxPoint x="540" y="520" as="targetPoint" />
            <Array as="points">
              <mxPoint x="300" y="440" />
              <mxPoint x="570" y="440" />
            </Array>
          </mxGeometry>
        </mxCell>
        <mxCell id="KcLKtv_ntzUyNXb-ebXP-4" value="1" style="edgeLabel;resizable=0;html=1;align=left;verticalAlign=top;" parent="KcLKtv_ntzUyNXb-ebXP-3" connectable="0" vertex="1">
          <mxGeometry x="-1" relative="1" as="geometry">
            <mxPoint y="-40" as="offset" />
          </mxGeometry>
        </mxCell>
        <mxCell id="KcLKtv_ntzUyNXb-ebXP-5" value="0..*" style="edgeLabel;resizable=0;html=1;align=right;verticalAlign=top;" parent="KcLKtv_ntzUyNXb-ebXP-3" connectable="0" vertex="1">
          <mxGeometry x="1" relative="1" as="geometry">
            <mxPoint x="20" y="-30" as="offset" />
          </mxGeometry>
        </mxCell>
        <mxCell id="KcLKtv_ntzUyNXb-ebXP-9" value="" style="endArrow=;html=1;endSize=12;startArrow=diamondThin;startSize=14;startFill=0;edgeStyle=orthogonalEdgeStyle;rounded=0;entryX=0.5;entryY=0;entryDx=0;entryDy=0;exitX=0.492;exitY=1.051;exitDx=0;exitDy=0;exitPerimeter=0;" parent="1" source="eFdMYxDxvEatI3bSZIBh-5" target="eFdMYxDxvEatI3bSZIBh-10" edge="1">
          <mxGeometry relative="1" as="geometry">
            <mxPoint x="297" y="710" as="sourcePoint" />
            <mxPoint x="650" y="949.97" as="targetPoint" />
            <Array as="points">
              <mxPoint x="299" y="770" />
              <mxPoint x="299" y="770" />
              <mxPoint x="299" y="820" />
            </Array>
          </mxGeometry>
        </mxCell>
        <mxCell id="KcLKtv_ntzUyNXb-ebXP-10" value="1" style="edgeLabel;resizable=0;html=1;align=left;verticalAlign=top;" parent="KcLKtv_ntzUyNXb-ebXP-9" connectable="0" vertex="1">
          <mxGeometry x="-1" relative="1" as="geometry">
            <mxPoint x="-17" as="offset" />
          </mxGeometry>
        </mxCell>
        <mxCell id="KcLKtv_ntzUyNXb-ebXP-11" value="1" style="edgeLabel;resizable=0;html=1;align=right;verticalAlign=top;" parent="KcLKtv_ntzUyNXb-ebXP-9" connectable="0" vertex="1">
          <mxGeometry x="1" relative="1" as="geometry">
            <mxPoint x="-10" y="-30" as="offset" />
          </mxGeometry>
        </mxCell>
        <mxCell id="KcLKtv_ntzUyNXb-ebXP-12" value="" style="endArrow=;html=1;endSize=12;startArrow=diamondThin;startSize=14;startFill=0;edgeStyle=orthogonalEdgeStyle;rounded=0;entryX=0.5;entryY=1;entryDx=0;entryDy=0;exitX=0.501;exitY=0.989;exitDx=0;exitDy=0;exitPerimeter=0;" parent="1" source="eFdMYxDxvEatI3bSZIBh-19" target="NzYpYTZ_gtOCed9Z5D2k-1" edge="1">
          <mxGeometry relative="1" as="geometry">
            <mxPoint x="280" y="990" as="sourcePoint" />
            <mxPoint x="630" y="1019.97" as="targetPoint" />
            <Array as="points">
              <mxPoint x="300" y="1000" />
              <mxPoint x="570" y="1000" />
            </Array>
          </mxGeometry>
        </mxCell>
        <mxCell id="KcLKtv_ntzUyNXb-ebXP-13" value="1" style="edgeLabel;resizable=0;html=1;align=left;verticalAlign=top;" parent="KcLKtv_ntzUyNXb-ebXP-12" connectable="0" vertex="1">
          <mxGeometry x="-1" relative="1" as="geometry">
            <mxPoint x="10" y="2" as="offset" />
          </mxGeometry>
        </mxCell>
        <mxCell id="KcLKtv_ntzUyNXb-ebXP-14" value="0..*" style="edgeLabel;resizable=0;html=1;align=right;verticalAlign=top;" parent="KcLKtv_ntzUyNXb-ebXP-12" connectable="0" vertex="1">
          <mxGeometry x="1" relative="1" as="geometry">
            <mxPoint x="30" y="2" as="offset" />
          </mxGeometry>
        </mxCell>
      </root>
    </mxGraphModel>
  </diagram>
  <diagram id="BeEJyYbw8B_oeyhGT36N" name="User Flow Diagram">
    <mxGraphModel dx="2074" dy="1150" grid="1" gridSize="10" guides="1" tooltips="1" connect="1" arrows="1" fold="1" page="1" pageScale="1" pageWidth="1100" pageHeight="850" math="0" shadow="0">
      <root>
        <mxCell id="0" />
        <mxCell id="1" parent="0" />
        <mxCell id="MBbGiRaDtV2P-sZtAhDS-14" style="edgeStyle=orthogonalEdgeStyle;rounded=0;orthogonalLoop=1;jettySize=auto;html=1;entryX=0.5;entryY=0;entryDx=0;entryDy=0;" parent="1" source="MBbGiRaDtV2P-sZtAhDS-1" target="MBbGiRaDtV2P-sZtAhDS-11" edge="1">
          <mxGeometry relative="1" as="geometry" />
        </mxCell>
        <mxCell id="MBbGiRaDtV2P-sZtAhDS-1" value="Landing page" style="ellipse;whiteSpace=wrap;html=1;" parent="1" vertex="1">
          <mxGeometry x="285" y="30" width="120" height="60" as="geometry" />
        </mxCell>
        <mxCell id="MBbGiRaDtV2P-sZtAhDS-16" style="edgeStyle=orthogonalEdgeStyle;rounded=0;orthogonalLoop=1;jettySize=auto;html=1;entryX=0;entryY=0.5;entryDx=0;entryDy=0;" parent="1" source="MBbGiRaDtV2P-sZtAhDS-2" target="MBbGiRaDtV2P-sZtAhDS-13" edge="1">
          <mxGeometry relative="1" as="geometry" />
        </mxCell>
        <mxCell id="MBbGiRaDtV2P-sZtAhDS-18" value="Yes" style="edgeLabel;html=1;align=center;verticalAlign=middle;resizable=0;points=[];" parent="MBbGiRaDtV2P-sZtAhDS-16" vertex="1" connectable="0">
          <mxGeometry x="-0.2133" y="-1" relative="1" as="geometry">
            <mxPoint as="offset" />
          </mxGeometry>
        </mxCell>
        <mxCell id="MBbGiRaDtV2P-sZtAhDS-17" style="edgeStyle=orthogonalEdgeStyle;rounded=0;orthogonalLoop=1;jettySize=auto;html=1;entryX=1;entryY=0.5;entryDx=0;entryDy=0;" parent="1" source="MBbGiRaDtV2P-sZtAhDS-2" target="MBbGiRaDtV2P-sZtAhDS-12" edge="1">
          <mxGeometry relative="1" as="geometry" />
        </mxCell>
        <mxCell id="MBbGiRaDtV2P-sZtAhDS-19" value="No" style="edgeLabel;html=1;align=center;verticalAlign=middle;resizable=0;points=[];" parent="MBbGiRaDtV2P-sZtAhDS-17" vertex="1" connectable="0">
          <mxGeometry x="-0.1077" y="-1" relative="1" as="geometry">
            <mxPoint as="offset" />
          </mxGeometry>
        </mxCell>
        <mxCell id="MBbGiRaDtV2P-sZtAhDS-2" value="Registered?" style="rhombus;whiteSpace=wrap;html=1;" parent="1" vertex="1">
          <mxGeometry x="275" y="250" width="140" height="80" as="geometry" />
        </mxCell>
        <mxCell id="MBbGiRaDtV2P-sZtAhDS-21" style="edgeStyle=orthogonalEdgeStyle;rounded=0;orthogonalLoop=1;jettySize=auto;html=1;entryX=0.5;entryY=0;entryDx=0;entryDy=0;" parent="1" source="MBbGiRaDtV2P-sZtAhDS-5" target="MBbGiRaDtV2P-sZtAhDS-7" edge="1">
          <mxGeometry relative="1" as="geometry" />
        </mxCell>
        <mxCell id="MBbGiRaDtV2P-sZtAhDS-5" value="Enter username and password" style="rounded=1;whiteSpace=wrap;html=1;" parent="1" vertex="1">
          <mxGeometry x="505" y="390" width="140" height="60" as="geometry" />
        </mxCell>
        <mxCell id="MBbGiRaDtV2P-sZtAhDS-33" style="edgeStyle=orthogonalEdgeStyle;rounded=0;orthogonalLoop=1;jettySize=auto;html=1;entryX=0.5;entryY=0;entryDx=0;entryDy=0;" parent="1" source="MBbGiRaDtV2P-sZtAhDS-6" target="MBbGiRaDtV2P-sZtAhDS-31" edge="1">
          <mxGeometry relative="1" as="geometry" />
        </mxCell>
        <mxCell id="MBbGiRaDtV2P-sZtAhDS-6" value="Enter name, username, email, and password" style="rounded=1;whiteSpace=wrap;html=1;" parent="1" vertex="1">
          <mxGeometry x="40" y="360" width="150" height="60" as="geometry" />
        </mxCell>
        <mxCell id="MBbGiRaDtV2P-sZtAhDS-26" style="edgeStyle=orthogonalEdgeStyle;rounded=0;orthogonalLoop=1;jettySize=auto;html=1;entryX=0;entryY=0.5;entryDx=0;entryDy=0;" parent="1" source="MBbGiRaDtV2P-sZtAhDS-7" target="MBbGiRaDtV2P-sZtAhDS-25" edge="1">
          <mxGeometry relative="1" as="geometry" />
        </mxCell>
        <mxCell id="MBbGiRaDtV2P-sZtAhDS-28" value="No" style="edgeLabel;html=1;align=center;verticalAlign=middle;resizable=0;points=[];" parent="MBbGiRaDtV2P-sZtAhDS-26" vertex="1" connectable="0">
          <mxGeometry x="-0.0101" y="2" relative="1" as="geometry">
            <mxPoint as="offset" />
          </mxGeometry>
        </mxCell>
        <mxCell id="MBbGiRaDtV2P-sZtAhDS-29" style="edgeStyle=orthogonalEdgeStyle;rounded=0;orthogonalLoop=1;jettySize=auto;html=1;entryX=1;entryY=0.5;entryDx=0;entryDy=0;exitX=0.5;exitY=1;exitDx=0;exitDy=0;" parent="1" source="MBbGiRaDtV2P-sZtAhDS-7" target="MBbGiRaDtV2P-sZtAhDS-10" edge="1">
          <mxGeometry relative="1" as="geometry">
            <Array as="points">
              <mxPoint x="575" y="730" />
            </Array>
          </mxGeometry>
        </mxCell>
        <mxCell id="MBbGiRaDtV2P-sZtAhDS-30" value="Yes" style="edgeLabel;html=1;align=center;verticalAlign=middle;resizable=0;points=[];" parent="MBbGiRaDtV2P-sZtAhDS-29" vertex="1" connectable="0">
          <mxGeometry x="0.0908" y="3" relative="1" as="geometry">
            <mxPoint x="-36" y="-3" as="offset" />
          </mxGeometry>
        </mxCell>
        <mxCell id="MBbGiRaDtV2P-sZtAhDS-7" value="Login data verified?" style="rhombus;whiteSpace=wrap;html=1;" parent="1" vertex="1">
          <mxGeometry x="497.5" y="520" width="155" height="80" as="geometry" />
        </mxCell>
        <mxCell id="S598xmeQARxjOJObptWj-2" style="edgeStyle=orthogonalEdgeStyle;rounded=0;orthogonalLoop=1;jettySize=auto;html=1;entryX=0;entryY=0.5;entryDx=0;entryDy=0;" parent="1" source="MBbGiRaDtV2P-sZtAhDS-8" target="MBbGiRaDtV2P-sZtAhDS-9" edge="1">
          <mxGeometry relative="1" as="geometry" />
        </mxCell>
        <mxCell id="S598xmeQARxjOJObptWj-3" value="Yes" style="edgeLabel;html=1;align=center;verticalAlign=middle;resizable=0;points=[];" parent="S598xmeQARxjOJObptWj-2" vertex="1" connectable="0">
          <mxGeometry x="-0.1833" relative="1" as="geometry">
            <mxPoint as="offset" />
          </mxGeometry>
        </mxCell>
        <mxCell id="S598xmeQARxjOJObptWj-6" style="edgeStyle=orthogonalEdgeStyle;rounded=0;orthogonalLoop=1;jettySize=auto;html=1;entryX=0.5;entryY=0;entryDx=0;entryDy=0;" parent="1" source="MBbGiRaDtV2P-sZtAhDS-8" target="S598xmeQARxjOJObptWj-5" edge="1">
          <mxGeometry relative="1" as="geometry" />
        </mxCell>
        <mxCell id="S598xmeQARxjOJObptWj-8" value="No" style="edgeLabel;html=1;align=center;verticalAlign=middle;resizable=0;points=[];" parent="S598xmeQARxjOJObptWj-6" vertex="1" connectable="0">
          <mxGeometry x="-0.3067" y="1" relative="1" as="geometry">
            <mxPoint as="offset" />
          </mxGeometry>
        </mxCell>
        <mxCell id="MBbGiRaDtV2P-sZtAhDS-8" value="Username already exist?" style="rhombus;whiteSpace=wrap;html=1;" parent="1" vertex="1">
          <mxGeometry x="20" y="560" width="190" height="80" as="geometry" />
        </mxCell>
        <mxCell id="S598xmeQARxjOJObptWj-4" style="edgeStyle=orthogonalEdgeStyle;rounded=0;orthogonalLoop=1;jettySize=auto;html=1;entryX=1;entryY=0;entryDx=0;entryDy=0;" parent="1" source="MBbGiRaDtV2P-sZtAhDS-9" target="MBbGiRaDtV2P-sZtAhDS-8" edge="1">
          <mxGeometry relative="1" as="geometry">
            <Array as="points">
              <mxPoint x="345" y="540" />
              <mxPoint x="163" y="540" />
            </Array>
          </mxGeometry>
        </mxCell>
        <mxCell id="MBbGiRaDtV2P-sZtAhDS-9" value="Re-enter username" style="rounded=1;whiteSpace=wrap;html=1;" parent="1" vertex="1">
          <mxGeometry x="270" y="570" width="150" height="60" as="geometry" />
        </mxCell>
        <mxCell id="MBbGiRaDtV2P-sZtAhDS-10" value="Home page" style="ellipse;whiteSpace=wrap;html=1;" parent="1" vertex="1">
          <mxGeometry x="285" y="700" width="120" height="60" as="geometry" />
        </mxCell>
        <mxCell id="MBbGiRaDtV2P-sZtAhDS-15" style="edgeStyle=orthogonalEdgeStyle;rounded=0;orthogonalLoop=1;jettySize=auto;html=1;entryX=0.5;entryY=0;entryDx=0;entryDy=0;" parent="1" source="MBbGiRaDtV2P-sZtAhDS-11" target="MBbGiRaDtV2P-sZtAhDS-2" edge="1">
          <mxGeometry relative="1" as="geometry" />
        </mxCell>
        <mxCell id="MBbGiRaDtV2P-sZtAhDS-11" value="View main feature" style="rounded=1;whiteSpace=wrap;html=1;" parent="1" vertex="1">
          <mxGeometry x="285" y="140" width="120" height="60" as="geometry" />
        </mxCell>
        <mxCell id="MBbGiRaDtV2P-sZtAhDS-32" style="edgeStyle=orthogonalEdgeStyle;rounded=0;orthogonalLoop=1;jettySize=auto;html=1;entryX=0.5;entryY=0;entryDx=0;entryDy=0;" parent="1" source="MBbGiRaDtV2P-sZtAhDS-12" target="MBbGiRaDtV2P-sZtAhDS-6" edge="1">
          <mxGeometry relative="1" as="geometry" />
        </mxCell>
        <mxCell id="MBbGiRaDtV2P-sZtAhDS-12" value="Sign up page" style="rounded=1;whiteSpace=wrap;html=1;" parent="1" vertex="1">
          <mxGeometry x="40" y="260" width="150" height="60" as="geometry" />
        </mxCell>
        <mxCell id="MBbGiRaDtV2P-sZtAhDS-20" style="edgeStyle=orthogonalEdgeStyle;rounded=0;orthogonalLoop=1;jettySize=auto;html=1;" parent="1" source="MBbGiRaDtV2P-sZtAhDS-13" target="MBbGiRaDtV2P-sZtAhDS-5" edge="1">
          <mxGeometry relative="1" as="geometry" />
        </mxCell>
        <mxCell id="MBbGiRaDtV2P-sZtAhDS-13" value="Log in page" style="rounded=1;whiteSpace=wrap;html=1;" parent="1" vertex="1">
          <mxGeometry x="505" y="260" width="140" height="60" as="geometry" />
        </mxCell>
        <mxCell id="MBbGiRaDtV2P-sZtAhDS-27" style="edgeStyle=orthogonalEdgeStyle;rounded=0;orthogonalLoop=1;jettySize=auto;html=1;entryX=1;entryY=0.5;entryDx=0;entryDy=0;" parent="1" source="MBbGiRaDtV2P-sZtAhDS-25" target="MBbGiRaDtV2P-sZtAhDS-5" edge="1">
          <mxGeometry relative="1" as="geometry">
            <Array as="points">
              <mxPoint x="780" y="420" />
            </Array>
          </mxGeometry>
        </mxCell>
        <mxCell id="MBbGiRaDtV2P-sZtAhDS-25" value="Error pop up" style="rounded=1;whiteSpace=wrap;html=1;" parent="1" vertex="1">
          <mxGeometry x="730" y="530" width="100" height="60" as="geometry" />
        </mxCell>
        <mxCell id="S598xmeQARxjOJObptWj-1" style="edgeStyle=orthogonalEdgeStyle;rounded=0;orthogonalLoop=1;jettySize=auto;html=1;entryX=0.5;entryY=0;entryDx=0;entryDy=0;" parent="1" source="MBbGiRaDtV2P-sZtAhDS-31" target="MBbGiRaDtV2P-sZtAhDS-8" edge="1">
          <mxGeometry relative="1" as="geometry" />
        </mxCell>
        <mxCell id="MBbGiRaDtV2P-sZtAhDS-31" value="Upload profile pict" style="rounded=1;whiteSpace=wrap;html=1;" parent="1" vertex="1">
          <mxGeometry x="40" y="460" width="150" height="60" as="geometry" />
        </mxCell>
        <mxCell id="S598xmeQARxjOJObptWj-7" style="edgeStyle=orthogonalEdgeStyle;rounded=0;orthogonalLoop=1;jettySize=auto;html=1;entryX=0;entryY=0.5;entryDx=0;entryDy=0;" parent="1" source="S598xmeQARxjOJObptWj-5" target="MBbGiRaDtV2P-sZtAhDS-10" edge="1">
          <mxGeometry relative="1" as="geometry" />
        </mxCell>
        <mxCell id="S598xmeQARxjOJObptWj-5" value="Log in" style="rounded=1;whiteSpace=wrap;html=1;" parent="1" vertex="1">
          <mxGeometry x="65" y="700" width="100" height="60" as="geometry" />
        </mxCell>
        <mxCell id="D_w4wSDi-EAA025_qF_--16" style="edgeStyle=orthogonalEdgeStyle;rounded=0;orthogonalLoop=1;jettySize=auto;html=1;entryX=0.5;entryY=0;entryDx=0;entryDy=0;" parent="1" source="D_w4wSDi-EAA025_qF_--1" target="D_w4wSDi-EAA025_qF_--4" edge="1">
          <mxGeometry relative="1" as="geometry">
            <Array as="points">
              <mxPoint x="1290" y="140" />
              <mxPoint x="1290" y="140" />
            </Array>
          </mxGeometry>
        </mxCell>
        <mxCell id="D_w4wSDi-EAA025_qF_--1" value="Play SFX" style="rounded=1;whiteSpace=wrap;html=1;" parent="1" vertex="1">
          <mxGeometry x="1230" y="40" width="120" height="60" as="geometry" />
        </mxCell>
        <mxCell id="D_w4wSDi-EAA025_qF_--15" style="edgeStyle=orthogonalEdgeStyle;rounded=0;orthogonalLoop=1;jettySize=auto;html=1;" parent="1" source="D_w4wSDi-EAA025_qF_--40" target="D_w4wSDi-EAA025_qF_--1" edge="1">
          <mxGeometry relative="1" as="geometry" />
        </mxCell>
        <mxCell id="D_w4wSDi-EAA025_qF_--42" value="No" style="edgeLabel;html=1;align=center;verticalAlign=middle;resizable=0;points=[];" parent="D_w4wSDi-EAA025_qF_--15" vertex="1" connectable="0">
          <mxGeometry x="-0.1059" y="1" relative="1" as="geometry">
            <mxPoint y="1" as="offset" />
          </mxGeometry>
        </mxCell>
        <mxCell id="D_w4wSDi-EAA025_qF_--2" value="Select SFX" style="rounded=1;whiteSpace=wrap;html=1;" parent="1" vertex="1">
          <mxGeometry x="810" y="40" width="130" height="60" as="geometry" />
        </mxCell>
        <mxCell id="D_w4wSDi-EAA025_qF_--17" style="edgeStyle=orthogonalEdgeStyle;rounded=0;orthogonalLoop=1;jettySize=auto;html=1;entryX=0.5;entryY=0;entryDx=0;entryDy=0;" parent="1" source="D_w4wSDi-EAA025_qF_--4" target="D_w4wSDi-EAA025_qF_--20" edge="1">
          <mxGeometry relative="1" as="geometry">
            <mxPoint x="1290" y="280" as="targetPoint" />
          </mxGeometry>
        </mxCell>
        <mxCell id="D_w4wSDi-EAA025_qF_--4" value="Add to favourite" style="rounded=1;whiteSpace=wrap;html=1;" parent="1" vertex="1">
          <mxGeometry x="1230" y="150" width="120" height="60" as="geometry" />
        </mxCell>
        <mxCell id="D_w4wSDi-EAA025_qF_--26" style="edgeStyle=orthogonalEdgeStyle;rounded=0;orthogonalLoop=1;jettySize=auto;html=1;entryX=0.5;entryY=0;entryDx=0;entryDy=0;" parent="1" source="D_w4wSDi-EAA025_qF_--5" target="D_w4wSDi-EAA025_qF_--25" edge="1">
          <mxGeometry relative="1" as="geometry" />
        </mxCell>
        <mxCell id="D_w4wSDi-EAA025_qF_--5" value="Download SFX" style="rounded=1;whiteSpace=wrap;html=1;" parent="1" vertex="1">
          <mxGeometry x="1007.5" y="270" width="120" height="60" as="geometry" />
        </mxCell>
        <mxCell id="D_w4wSDi-EAA025_qF_--14" style="edgeStyle=orthogonalEdgeStyle;rounded=0;orthogonalLoop=1;jettySize=auto;html=1;entryX=0;entryY=0.5;entryDx=0;entryDy=0;" parent="1" source="D_w4wSDi-EAA025_qF_--6" target="D_w4wSDi-EAA025_qF_--2" edge="1">
          <mxGeometry relative="1" as="geometry" />
        </mxCell>
        <mxCell id="D_w4wSDi-EAA025_qF_--6" value="Home page" style="ellipse;whiteSpace=wrap;html=1;" parent="1" vertex="1">
          <mxGeometry x="630" y="40" width="120" height="60" as="geometry" />
        </mxCell>
        <mxCell id="D_w4wSDi-EAA025_qF_--18" style="edgeStyle=orthogonalEdgeStyle;rounded=0;orthogonalLoop=1;jettySize=auto;html=1;entryX=0;entryY=0.5;entryDx=0;entryDy=0;exitX=1;exitY=0.5;exitDx=0;exitDy=0;" parent="1" source="D_w4wSDi-EAA025_qF_--20" target="D_w4wSDi-EAA025_qF_--11" edge="1">
          <mxGeometry relative="1" as="geometry">
            <mxPoint x="1350" y="310.0344827586207" as="sourcePoint" />
          </mxGeometry>
        </mxCell>
        <mxCell id="D_w4wSDi-EAA025_qF_--21" value="Yes" style="edgeLabel;html=1;align=center;verticalAlign=middle;resizable=0;points=[];" parent="D_w4wSDi-EAA025_qF_--18" vertex="1" connectable="0">
          <mxGeometry x="-0.0379" y="-1" relative="1" as="geometry">
            <mxPoint as="offset" />
          </mxGeometry>
        </mxCell>
        <mxCell id="D_w4wSDi-EAA025_qF_--32" style="edgeStyle=orthogonalEdgeStyle;rounded=0;orthogonalLoop=1;jettySize=auto;html=1;entryX=0.5;entryY=0;entryDx=0;entryDy=0;" parent="1" source="D_w4wSDi-EAA025_qF_--9" target="D_w4wSDi-EAA025_qF_--31" edge="1">
          <mxGeometry relative="1" as="geometry" />
        </mxCell>
        <mxCell id="D_w4wSDi-EAA025_qF_--9" value="Upload SFX" style="rounded=1;whiteSpace=wrap;html=1;" parent="1" vertex="1">
          <mxGeometry x="1007.5" y="560" width="120" height="60" as="geometry" />
        </mxCell>
        <mxCell id="D_w4wSDi-EAA025_qF_--11" value="Favourite Page" style="ellipse;whiteSpace=wrap;html=1;" parent="1" vertex="1">
          <mxGeometry x="1450" y="270" width="120" height="60" as="geometry" />
        </mxCell>
        <mxCell id="D_w4wSDi-EAA025_qF_--12" value="Profile Page" style="ellipse;whiteSpace=wrap;html=1;" parent="1" vertex="1">
          <mxGeometry x="1230" y="410" width="120" height="60" as="geometry" />
        </mxCell>
        <mxCell id="D_w4wSDi-EAA025_qF_--22" style="edgeStyle=orthogonalEdgeStyle;rounded=0;orthogonalLoop=1;jettySize=auto;html=1;entryX=1;entryY=0.5;entryDx=0;entryDy=0;" parent="1" source="D_w4wSDi-EAA025_qF_--20" target="D_w4wSDi-EAA025_qF_--5" edge="1">
          <mxGeometry relative="1" as="geometry" />
        </mxCell>
        <mxCell id="D_w4wSDi-EAA025_qF_--23" value="No" style="edgeLabel;html=1;align=center;verticalAlign=middle;resizable=0;points=[];" parent="D_w4wSDi-EAA025_qF_--22" vertex="1" connectable="0">
          <mxGeometry x="-0.1527" y="1" relative="1" as="geometry">
            <mxPoint as="offset" />
          </mxGeometry>
        </mxCell>
        <mxCell id="D_w4wSDi-EAA025_qF_--20" value="View favourite SFX" style="rhombus;whiteSpace=wrap;html=1;" parent="1" vertex="1">
          <mxGeometry x="1212.5" y="260" width="155" height="80" as="geometry" />
        </mxCell>
        <mxCell id="D_w4wSDi-EAA025_qF_--27" style="edgeStyle=orthogonalEdgeStyle;rounded=0;orthogonalLoop=1;jettySize=auto;html=1;entryX=0;entryY=0.5;entryDx=0;entryDy=0;" parent="1" source="D_w4wSDi-EAA025_qF_--25" target="D_w4wSDi-EAA025_qF_--12" edge="1">
          <mxGeometry relative="1" as="geometry" />
        </mxCell>
        <mxCell id="D_w4wSDi-EAA025_qF_--28" value="Yes" style="edgeLabel;html=1;align=center;verticalAlign=middle;resizable=0;points=[];" parent="D_w4wSDi-EAA025_qF_--27" vertex="1" connectable="0">
          <mxGeometry x="-0.128" y="-2" relative="1" as="geometry">
            <mxPoint as="offset" />
          </mxGeometry>
        </mxCell>
        <mxCell id="D_w4wSDi-EAA025_qF_--29" style="edgeStyle=orthogonalEdgeStyle;rounded=0;orthogonalLoop=1;jettySize=auto;html=1;entryX=0.5;entryY=0;entryDx=0;entryDy=0;" parent="1" source="D_w4wSDi-EAA025_qF_--25" target="D_w4wSDi-EAA025_qF_--9" edge="1">
          <mxGeometry relative="1" as="geometry" />
        </mxCell>
        <mxCell id="D_w4wSDi-EAA025_qF_--30" value="No" style="edgeLabel;html=1;align=center;verticalAlign=middle;resizable=0;points=[];" parent="D_w4wSDi-EAA025_qF_--29" vertex="1" connectable="0">
          <mxGeometry x="-0.2917" y="-3" relative="1" as="geometry">
            <mxPoint x="3" y="2" as="offset" />
          </mxGeometry>
        </mxCell>
        <mxCell id="D_w4wSDi-EAA025_qF_--25" value="Edit profile data" style="rhombus;whiteSpace=wrap;html=1;" parent="1" vertex="1">
          <mxGeometry x="990" y="400" width="155" height="80" as="geometry" />
        </mxCell>
        <mxCell id="D_w4wSDi-EAA025_qF_--34" style="edgeStyle=orthogonalEdgeStyle;rounded=0;orthogonalLoop=1;jettySize=auto;html=1;entryX=0;entryY=0.5;entryDx=0;entryDy=0;" parent="1" source="D_w4wSDi-EAA025_qF_--31" target="D_w4wSDi-EAA025_qF_--33" edge="1">
          <mxGeometry relative="1" as="geometry" />
        </mxCell>
        <mxCell id="D_w4wSDi-EAA025_qF_--31" value="Select file" style="rounded=1;whiteSpace=wrap;html=1;" parent="1" vertex="1">
          <mxGeometry x="1007.5" y="670" width="120" height="60" as="geometry" />
        </mxCell>
        <mxCell id="D_w4wSDi-EAA025_qF_--35" style="edgeStyle=orthogonalEdgeStyle;rounded=0;orthogonalLoop=1;jettySize=auto;html=1;entryX=0.5;entryY=1;entryDx=0;entryDy=0;" parent="1" source="D_w4wSDi-EAA025_qF_--33" target="D_w4wSDi-EAA025_qF_--31" edge="1">
          <mxGeometry relative="1" as="geometry">
            <Array as="points">
              <mxPoint x="1290" y="770" />
              <mxPoint x="1085" y="770" />
            </Array>
          </mxGeometry>
        </mxCell>
        <mxCell id="D_w4wSDi-EAA025_qF_--36" value="No" style="edgeLabel;html=1;align=center;verticalAlign=middle;resizable=0;points=[];" parent="D_w4wSDi-EAA025_qF_--35" vertex="1" connectable="0">
          <mxGeometry x="-0.1543" y="-1" relative="1" as="geometry">
            <mxPoint x="-24" as="offset" />
          </mxGeometry>
        </mxCell>
        <mxCell id="D_w4wSDi-EAA025_qF_--38" style="edgeStyle=orthogonalEdgeStyle;rounded=0;orthogonalLoop=1;jettySize=auto;html=1;entryX=0;entryY=0.5;entryDx=0;entryDy=0;" parent="1" source="D_w4wSDi-EAA025_qF_--33" target="D_w4wSDi-EAA025_qF_--37" edge="1">
          <mxGeometry relative="1" as="geometry" />
        </mxCell>
        <mxCell id="D_w4wSDi-EAA025_qF_--39" value="Yes" style="edgeLabel;html=1;align=center;verticalAlign=middle;resizable=0;points=[];" parent="D_w4wSDi-EAA025_qF_--38" vertex="1" connectable="0">
          <mxGeometry x="-0.1394" y="-1" relative="1" as="geometry">
            <mxPoint as="offset" />
          </mxGeometry>
        </mxCell>
        <mxCell id="D_w4wSDi-EAA025_qF_--33" value="Format correct?" style="rhombus;whiteSpace=wrap;html=1;" parent="1" vertex="1">
          <mxGeometry x="1212.5" y="660" width="155" height="80" as="geometry" />
        </mxCell>
        <mxCell id="D_w4wSDi-EAA025_qF_--37" value="SFX uploaded" style="rounded=1;whiteSpace=wrap;html=1;" parent="1" vertex="1">
          <mxGeometry x="1450" y="670" width="120" height="60" as="geometry" />
        </mxCell>
        <mxCell id="D_w4wSDi-EAA025_qF_--41" value="" style="edgeStyle=orthogonalEdgeStyle;rounded=0;orthogonalLoop=1;jettySize=auto;html=1;" parent="1" source="D_w4wSDi-EAA025_qF_--2" target="D_w4wSDi-EAA025_qF_--40" edge="1">
          <mxGeometry relative="1" as="geometry">
            <mxPoint x="940" y="70" as="sourcePoint" />
            <mxPoint x="1230" y="70" as="targetPoint" />
          </mxGeometry>
        </mxCell>
        <mxCell id="D_w4wSDi-EAA025_qF_--44" style="edgeStyle=orthogonalEdgeStyle;rounded=0;orthogonalLoop=1;jettySize=auto;html=1;entryX=0.5;entryY=0;entryDx=0;entryDy=0;" parent="1" source="D_w4wSDi-EAA025_qF_--40" target="D_w4wSDi-EAA025_qF_--43" edge="1">
          <mxGeometry relative="1" as="geometry" />
        </mxCell>
        <mxCell id="D_w4wSDi-EAA025_qF_--45" value="Yes" style="edgeLabel;html=1;align=center;verticalAlign=middle;resizable=0;points=[];" parent="D_w4wSDi-EAA025_qF_--44" vertex="1" connectable="0">
          <mxGeometry x="-0.16" y="1" relative="1" as="geometry">
            <mxPoint as="offset" />
          </mxGeometry>
        </mxCell>
        <mxCell id="D_w4wSDi-EAA025_qF_--40" value="My SFX page" style="rhombus;whiteSpace=wrap;html=1;" parent="1" vertex="1">
          <mxGeometry x="990" y="30" width="155" height="80" as="geometry" />
        </mxCell>
        <mxCell id="D_w4wSDi-EAA025_qF_--47" style="edgeStyle=orthogonalEdgeStyle;rounded=0;orthogonalLoop=1;jettySize=auto;html=1;entryX=1;entryY=0.5;entryDx=0;entryDy=0;" parent="1" source="D_w4wSDi-EAA025_qF_--43" target="D_w4wSDi-EAA025_qF_--46" edge="1">
          <mxGeometry relative="1" as="geometry" />
        </mxCell>
        <mxCell id="D_w4wSDi-EAA025_qF_--43" value="Play SFX" style="rounded=1;whiteSpace=wrap;html=1;" parent="1" vertex="1">
          <mxGeometry x="1002.5" y="160" width="130" height="60" as="geometry" />
        </mxCell>
        <mxCell id="D_w4wSDi-EAA025_qF_--48" style="edgeStyle=orthogonalEdgeStyle;rounded=0;orthogonalLoop=1;jettySize=auto;html=1;entryX=0;entryY=0.5;entryDx=0;entryDy=0;" parent="1" source="D_w4wSDi-EAA025_qF_--46" target="D_w4wSDi-EAA025_qF_--5" edge="1">
          <mxGeometry relative="1" as="geometry">
            <Array as="points">
              <mxPoint x="880" y="300" />
            </Array>
          </mxGeometry>
        </mxCell>
        <mxCell id="D_w4wSDi-EAA025_qF_--46" value="Edit SFX data" style="rounded=1;whiteSpace=wrap;html=1;" parent="1" vertex="1">
          <mxGeometry x="820" y="160" width="120" height="60" as="geometry" />
        </mxCell>
      </root>
    </mxGraphModel>
  </diagram>
  <diagram id="Y0UmHeSeWGQUgXmGeDt1" name="Entity Relational Diagram">
    <mxGraphModel dx="1354" dy="600" grid="1" gridSize="10" guides="1" tooltips="1" connect="1" arrows="1" fold="1" page="1" pageScale="1" pageWidth="1100" pageHeight="850" math="0" shadow="0">
      <root>
        <mxCell id="0" />
        <mxCell id="1" parent="0" />
        <mxCell id="y2IgsB-8PV7QhEY4FL5_-1" value="User" style="shape=table;startSize=30;container=1;collapsible=1;childLayout=tableLayout;fixedRows=1;rowLines=0;fontStyle=1;align=center;resizeLast=1;html=1;" parent="1" vertex="1">
          <mxGeometry x="340" y="370" width="180" height="180" as="geometry" />
        </mxCell>
        <mxCell id="y2IgsB-8PV7QhEY4FL5_-2" value="" style="shape=tableRow;horizontal=0;startSize=0;swimlaneHead=0;swimlaneBody=0;fillColor=none;collapsible=0;dropTarget=0;points=[[0,0.5],[1,0.5]];portConstraint=eastwest;top=0;left=0;right=0;bottom=1;" parent="y2IgsB-8PV7QhEY4FL5_-1" vertex="1">
          <mxGeometry y="30" width="180" height="30" as="geometry" />
        </mxCell>
        <mxCell id="y2IgsB-8PV7QhEY4FL5_-3" value="PK" style="shape=partialRectangle;connectable=0;fillColor=none;top=0;left=0;bottom=0;right=0;fontStyle=1;overflow=hidden;whiteSpace=wrap;html=1;" parent="y2IgsB-8PV7QhEY4FL5_-2" vertex="1">
          <mxGeometry width="30" height="30" as="geometry">
            <mxRectangle width="30" height="30" as="alternateBounds" />
          </mxGeometry>
        </mxCell>
        <mxCell id="y2IgsB-8PV7QhEY4FL5_-4" value="userID" style="shape=partialRectangle;connectable=0;fillColor=none;top=0;left=0;bottom=0;right=0;align=left;spacingLeft=6;fontStyle=5;overflow=hidden;whiteSpace=wrap;html=1;" parent="y2IgsB-8PV7QhEY4FL5_-2" vertex="1">
          <mxGeometry x="30" width="150" height="30" as="geometry">
            <mxRectangle width="150" height="30" as="alternateBounds" />
          </mxGeometry>
        </mxCell>
        <mxCell id="y2IgsB-8PV7QhEY4FL5_-5" value="" style="shape=tableRow;horizontal=0;startSize=0;swimlaneHead=0;swimlaneBody=0;fillColor=none;collapsible=0;dropTarget=0;points=[[0,0.5],[1,0.5]];portConstraint=eastwest;top=0;left=0;right=0;bottom=0;" parent="y2IgsB-8PV7QhEY4FL5_-1" vertex="1">
          <mxGeometry y="60" width="180" height="30" as="geometry" />
        </mxCell>
        <mxCell id="y2IgsB-8PV7QhEY4FL5_-6" value="" style="shape=partialRectangle;connectable=0;fillColor=none;top=0;left=0;bottom=0;right=0;editable=1;overflow=hidden;whiteSpace=wrap;html=1;" parent="y2IgsB-8PV7QhEY4FL5_-5" vertex="1">
          <mxGeometry width="30" height="30" as="geometry">
            <mxRectangle width="30" height="30" as="alternateBounds" />
          </mxGeometry>
        </mxCell>
        <mxCell id="y2IgsB-8PV7QhEY4FL5_-7" value="userName" style="shape=partialRectangle;connectable=0;fillColor=none;top=0;left=0;bottom=0;right=0;align=left;spacingLeft=6;overflow=hidden;whiteSpace=wrap;html=1;" parent="y2IgsB-8PV7QhEY4FL5_-5" vertex="1">
          <mxGeometry x="30" width="150" height="30" as="geometry">
            <mxRectangle width="150" height="30" as="alternateBounds" />
          </mxGeometry>
        </mxCell>
        <mxCell id="y2IgsB-8PV7QhEY4FL5_-8" value="" style="shape=tableRow;horizontal=0;startSize=0;swimlaneHead=0;swimlaneBody=0;fillColor=none;collapsible=0;dropTarget=0;points=[[0,0.5],[1,0.5]];portConstraint=eastwest;top=0;left=0;right=0;bottom=0;" parent="y2IgsB-8PV7QhEY4FL5_-1" vertex="1">
          <mxGeometry y="90" width="180" height="30" as="geometry" />
        </mxCell>
        <mxCell id="y2IgsB-8PV7QhEY4FL5_-9" value="" style="shape=partialRectangle;connectable=0;fillColor=none;top=0;left=0;bottom=0;right=0;editable=1;overflow=hidden;whiteSpace=wrap;html=1;" parent="y2IgsB-8PV7QhEY4FL5_-8" vertex="1">
          <mxGeometry width="30" height="30" as="geometry">
            <mxRectangle width="30" height="30" as="alternateBounds" />
          </mxGeometry>
        </mxCell>
        <mxCell id="y2IgsB-8PV7QhEY4FL5_-10" value="userEmail" style="shape=partialRectangle;connectable=0;fillColor=none;top=0;left=0;bottom=0;right=0;align=left;spacingLeft=6;overflow=hidden;whiteSpace=wrap;html=1;" parent="y2IgsB-8PV7QhEY4FL5_-8" vertex="1">
          <mxGeometry x="30" width="150" height="30" as="geometry">
            <mxRectangle width="150" height="30" as="alternateBounds" />
          </mxGeometry>
        </mxCell>
        <mxCell id="y2IgsB-8PV7QhEY4FL5_-11" value="" style="shape=tableRow;horizontal=0;startSize=0;swimlaneHead=0;swimlaneBody=0;fillColor=none;collapsible=0;dropTarget=0;points=[[0,0.5],[1,0.5]];portConstraint=eastwest;top=0;left=0;right=0;bottom=0;" parent="y2IgsB-8PV7QhEY4FL5_-1" vertex="1">
          <mxGeometry y="120" width="180" height="30" as="geometry" />
        </mxCell>
        <mxCell id="y2IgsB-8PV7QhEY4FL5_-12" value="" style="shape=partialRectangle;connectable=0;fillColor=none;top=0;left=0;bottom=0;right=0;editable=1;overflow=hidden;whiteSpace=wrap;html=1;" parent="y2IgsB-8PV7QhEY4FL5_-11" vertex="1">
          <mxGeometry width="30" height="30" as="geometry">
            <mxRectangle width="30" height="30" as="alternateBounds" />
          </mxGeometry>
        </mxCell>
        <mxCell id="y2IgsB-8PV7QhEY4FL5_-13" value="userPassword" style="shape=partialRectangle;connectable=0;fillColor=none;top=0;left=0;bottom=0;right=0;align=left;spacingLeft=6;overflow=hidden;whiteSpace=wrap;html=1;" parent="y2IgsB-8PV7QhEY4FL5_-11" vertex="1">
          <mxGeometry x="30" width="150" height="30" as="geometry">
            <mxRectangle width="150" height="30" as="alternateBounds" />
          </mxGeometry>
        </mxCell>
        <mxCell id="y2IgsB-8PV7QhEY4FL5_-14" value="" style="shape=tableRow;horizontal=0;startSize=0;swimlaneHead=0;swimlaneBody=0;fillColor=none;collapsible=0;dropTarget=0;points=[[0,0.5],[1,0.5]];portConstraint=eastwest;top=0;left=0;right=0;bottom=0;" parent="y2IgsB-8PV7QhEY4FL5_-1" vertex="1">
          <mxGeometry y="150" width="180" height="30" as="geometry" />
        </mxCell>
        <mxCell id="y2IgsB-8PV7QhEY4FL5_-15" value="" style="shape=partialRectangle;connectable=0;fillColor=none;top=0;left=0;bottom=0;right=0;editable=1;overflow=hidden;whiteSpace=wrap;html=1;" parent="y2IgsB-8PV7QhEY4FL5_-14" vertex="1">
          <mxGeometry width="30" height="30" as="geometry">
            <mxRectangle width="30" height="30" as="alternateBounds" />
          </mxGeometry>
        </mxCell>
        <mxCell id="y2IgsB-8PV7QhEY4FL5_-16" value="soundCount" style="shape=partialRectangle;connectable=0;fillColor=none;top=0;left=0;bottom=0;right=0;align=left;spacingLeft=6;overflow=hidden;whiteSpace=wrap;html=1;" parent="y2IgsB-8PV7QhEY4FL5_-14" vertex="1">
          <mxGeometry x="30" width="150" height="30" as="geometry">
            <mxRectangle width="150" height="30" as="alternateBounds" />
          </mxGeometry>
        </mxCell>
        <mxCell id="y2IgsB-8PV7QhEY4FL5_-17" value="Favourite" style="shape=table;startSize=30;container=1;collapsible=1;childLayout=tableLayout;fixedRows=1;rowLines=0;fontStyle=1;align=center;resizeLast=1;html=1;" parent="1" vertex="1">
          <mxGeometry x="580" y="500" width="180" height="120" as="geometry" />
        </mxCell>
        <mxCell id="y2IgsB-8PV7QhEY4FL5_-18" value="" style="shape=tableRow;horizontal=0;startSize=0;swimlaneHead=0;swimlaneBody=0;fillColor=none;collapsible=0;dropTarget=0;points=[[0,0.5],[1,0.5]];portConstraint=eastwest;top=0;left=0;right=0;bottom=1;" parent="y2IgsB-8PV7QhEY4FL5_-17" vertex="1">
          <mxGeometry y="30" width="180" height="30" as="geometry" />
        </mxCell>
        <mxCell id="y2IgsB-8PV7QhEY4FL5_-19" value="PK" style="shape=partialRectangle;connectable=0;fillColor=none;top=0;left=0;bottom=0;right=0;fontStyle=1;overflow=hidden;whiteSpace=wrap;html=1;" parent="y2IgsB-8PV7QhEY4FL5_-18" vertex="1">
          <mxGeometry width="30" height="30" as="geometry">
            <mxRectangle width="30" height="30" as="alternateBounds" />
          </mxGeometry>
        </mxCell>
        <mxCell id="y2IgsB-8PV7QhEY4FL5_-20" value="favID" style="shape=partialRectangle;connectable=0;fillColor=none;top=0;left=0;bottom=0;right=0;align=left;spacingLeft=6;fontStyle=5;overflow=hidden;whiteSpace=wrap;html=1;" parent="y2IgsB-8PV7QhEY4FL5_-18" vertex="1">
          <mxGeometry x="30" width="150" height="30" as="geometry">
            <mxRectangle width="150" height="30" as="alternateBounds" />
          </mxGeometry>
        </mxCell>
        <mxCell id="y2IgsB-8PV7QhEY4FL5_-21" value="" style="shape=tableRow;horizontal=0;startSize=0;swimlaneHead=0;swimlaneBody=0;fillColor=none;collapsible=0;dropTarget=0;points=[[0,0.5],[1,0.5]];portConstraint=eastwest;top=0;left=0;right=0;bottom=0;" parent="y2IgsB-8PV7QhEY4FL5_-17" vertex="1">
          <mxGeometry y="60" width="180" height="30" as="geometry" />
        </mxCell>
        <mxCell id="y2IgsB-8PV7QhEY4FL5_-22" value="FK" style="shape=partialRectangle;connectable=0;fillColor=none;top=0;left=0;bottom=0;right=0;editable=1;overflow=hidden;whiteSpace=wrap;html=1;" parent="y2IgsB-8PV7QhEY4FL5_-21" vertex="1">
          <mxGeometry width="30" height="30" as="geometry">
            <mxRectangle width="30" height="30" as="alternateBounds" />
          </mxGeometry>
        </mxCell>
        <mxCell id="y2IgsB-8PV7QhEY4FL5_-23" value="userID" style="shape=partialRectangle;connectable=0;fillColor=none;top=0;left=0;bottom=0;right=0;align=left;spacingLeft=6;overflow=hidden;whiteSpace=wrap;html=1;" parent="y2IgsB-8PV7QhEY4FL5_-21" vertex="1">
          <mxGeometry x="30" width="150" height="30" as="geometry">
            <mxRectangle width="150" height="30" as="alternateBounds" />
          </mxGeometry>
        </mxCell>
        <mxCell id="y2IgsB-8PV7QhEY4FL5_-24" value="" style="shape=tableRow;horizontal=0;startSize=0;swimlaneHead=0;swimlaneBody=0;fillColor=none;collapsible=0;dropTarget=0;points=[[0,0.5],[1,0.5]];portConstraint=eastwest;top=0;left=0;right=0;bottom=0;" parent="y2IgsB-8PV7QhEY4FL5_-17" vertex="1">
          <mxGeometry y="90" width="180" height="30" as="geometry" />
        </mxCell>
        <mxCell id="y2IgsB-8PV7QhEY4FL5_-25" value="" style="shape=partialRectangle;connectable=0;fillColor=none;top=0;left=0;bottom=0;right=0;editable=1;overflow=hidden;whiteSpace=wrap;html=1;" parent="y2IgsB-8PV7QhEY4FL5_-24" vertex="1">
          <mxGeometry width="30" height="30" as="geometry">
            <mxRectangle width="30" height="30" as="alternateBounds" />
          </mxGeometry>
        </mxCell>
        <mxCell id="y2IgsB-8PV7QhEY4FL5_-26" value="soundIDList" style="shape=partialRectangle;connectable=0;fillColor=none;top=0;left=0;bottom=0;right=0;align=left;spacingLeft=6;overflow=hidden;whiteSpace=wrap;html=1;" parent="y2IgsB-8PV7QhEY4FL5_-24" vertex="1">
          <mxGeometry x="30" width="150" height="30" as="geometry">
            <mxRectangle width="150" height="30" as="alternateBounds" />
          </mxGeometry>
        </mxCell>
        <mxCell id="y2IgsB-8PV7QhEY4FL5_-36" value="Sounds" style="shape=table;startSize=30;container=1;collapsible=1;childLayout=tableLayout;fixedRows=1;rowLines=0;fontStyle=1;align=center;resizeLast=1;html=1;" parent="1" vertex="1">
          <mxGeometry x="580" y="210" width="180" height="240" as="geometry" />
        </mxCell>
        <mxCell id="y2IgsB-8PV7QhEY4FL5_-37" value="" style="shape=tableRow;horizontal=0;startSize=0;swimlaneHead=0;swimlaneBody=0;fillColor=none;collapsible=0;dropTarget=0;points=[[0,0.5],[1,0.5]];portConstraint=eastwest;top=0;left=0;right=0;bottom=1;" parent="y2IgsB-8PV7QhEY4FL5_-36" vertex="1">
          <mxGeometry y="30" width="180" height="30" as="geometry" />
        </mxCell>
        <mxCell id="y2IgsB-8PV7QhEY4FL5_-38" value="PK" style="shape=partialRectangle;connectable=0;fillColor=none;top=0;left=0;bottom=0;right=0;fontStyle=1;overflow=hidden;whiteSpace=wrap;html=1;" parent="y2IgsB-8PV7QhEY4FL5_-37" vertex="1">
          <mxGeometry width="30" height="30" as="geometry">
            <mxRectangle width="30" height="30" as="alternateBounds" />
          </mxGeometry>
        </mxCell>
        <mxCell id="y2IgsB-8PV7QhEY4FL5_-39" value="soundID" style="shape=partialRectangle;connectable=0;fillColor=none;top=0;left=0;bottom=0;right=0;align=left;spacingLeft=6;fontStyle=5;overflow=hidden;whiteSpace=wrap;html=1;" parent="y2IgsB-8PV7QhEY4FL5_-37" vertex="1">
          <mxGeometry x="30" width="150" height="30" as="geometry">
            <mxRectangle width="150" height="30" as="alternateBounds" />
          </mxGeometry>
        </mxCell>
        <mxCell id="y2IgsB-8PV7QhEY4FL5_-40" value="" style="shape=tableRow;horizontal=0;startSize=0;swimlaneHead=0;swimlaneBody=0;fillColor=none;collapsible=0;dropTarget=0;points=[[0,0.5],[1,0.5]];portConstraint=eastwest;top=0;left=0;right=0;bottom=0;" parent="y2IgsB-8PV7QhEY4FL5_-36" vertex="1">
          <mxGeometry y="60" width="180" height="30" as="geometry" />
        </mxCell>
        <mxCell id="y2IgsB-8PV7QhEY4FL5_-41" value="FK" style="shape=partialRectangle;connectable=0;fillColor=none;top=0;left=0;bottom=0;right=0;editable=1;overflow=hidden;whiteSpace=wrap;html=1;" parent="y2IgsB-8PV7QhEY4FL5_-40" vertex="1">
          <mxGeometry width="30" height="30" as="geometry">
            <mxRectangle width="30" height="30" as="alternateBounds" />
          </mxGeometry>
        </mxCell>
        <mxCell id="y2IgsB-8PV7QhEY4FL5_-42" value="userID" style="shape=partialRectangle;connectable=0;fillColor=none;top=0;left=0;bottom=0;right=0;align=left;spacingLeft=6;overflow=hidden;whiteSpace=wrap;html=1;" parent="y2IgsB-8PV7QhEY4FL5_-40" vertex="1">
          <mxGeometry x="30" width="150" height="30" as="geometry">
            <mxRectangle width="150" height="30" as="alternateBounds" />
          </mxGeometry>
        </mxCell>
        <mxCell id="y2IgsB-8PV7QhEY4FL5_-43" value="" style="shape=tableRow;horizontal=0;startSize=0;swimlaneHead=0;swimlaneBody=0;fillColor=none;collapsible=0;dropTarget=0;points=[[0,0.5],[1,0.5]];portConstraint=eastwest;top=0;left=0;right=0;bottom=0;" parent="y2IgsB-8PV7QhEY4FL5_-36" vertex="1">
          <mxGeometry y="90" width="180" height="30" as="geometry" />
        </mxCell>
        <mxCell id="y2IgsB-8PV7QhEY4FL5_-44" value="" style="shape=partialRectangle;connectable=0;fillColor=none;top=0;left=0;bottom=0;right=0;editable=1;overflow=hidden;whiteSpace=wrap;html=1;" parent="y2IgsB-8PV7QhEY4FL5_-43" vertex="1">
          <mxGeometry width="30" height="30" as="geometry">
            <mxRectangle width="30" height="30" as="alternateBounds" />
          </mxGeometry>
        </mxCell>
        <mxCell id="y2IgsB-8PV7QhEY4FL5_-45" value="soundAddress" style="shape=partialRectangle;connectable=0;fillColor=none;top=0;left=0;bottom=0;right=0;align=left;spacingLeft=6;overflow=hidden;whiteSpace=wrap;html=1;" parent="y2IgsB-8PV7QhEY4FL5_-43" vertex="1">
          <mxGeometry x="30" width="150" height="30" as="geometry">
            <mxRectangle width="150" height="30" as="alternateBounds" />
          </mxGeometry>
        </mxCell>
        <mxCell id="y2IgsB-8PV7QhEY4FL5_-46" value="" style="shape=tableRow;horizontal=0;startSize=0;swimlaneHead=0;swimlaneBody=0;fillColor=none;collapsible=0;dropTarget=0;points=[[0,0.5],[1,0.5]];portConstraint=eastwest;top=0;left=0;right=0;bottom=0;" parent="y2IgsB-8PV7QhEY4FL5_-36" vertex="1">
          <mxGeometry y="120" width="180" height="30" as="geometry" />
        </mxCell>
        <mxCell id="y2IgsB-8PV7QhEY4FL5_-47" value="" style="shape=partialRectangle;connectable=0;fillColor=none;top=0;left=0;bottom=0;right=0;editable=1;overflow=hidden;whiteSpace=wrap;html=1;" parent="y2IgsB-8PV7QhEY4FL5_-46" vertex="1">
          <mxGeometry width="30" height="30" as="geometry">
            <mxRectangle width="30" height="30" as="alternateBounds" />
          </mxGeometry>
        </mxCell>
        <mxCell id="y2IgsB-8PV7QhEY4FL5_-48" value="soundImage" style="shape=partialRectangle;connectable=0;fillColor=none;top=0;left=0;bottom=0;right=0;align=left;spacingLeft=6;overflow=hidden;whiteSpace=wrap;html=1;" parent="y2IgsB-8PV7QhEY4FL5_-46" vertex="1">
          <mxGeometry x="30" width="150" height="30" as="geometry">
            <mxRectangle width="150" height="30" as="alternateBounds" />
          </mxGeometry>
        </mxCell>
        <mxCell id="y2IgsB-8PV7QhEY4FL5_-49" value="" style="shape=tableRow;horizontal=0;startSize=0;swimlaneHead=0;swimlaneBody=0;fillColor=none;collapsible=0;dropTarget=0;points=[[0,0.5],[1,0.5]];portConstraint=eastwest;top=0;left=0;right=0;bottom=0;" parent="y2IgsB-8PV7QhEY4FL5_-36" vertex="1">
          <mxGeometry y="150" width="180" height="30" as="geometry" />
        </mxCell>
        <mxCell id="y2IgsB-8PV7QhEY4FL5_-50" value="" style="shape=partialRectangle;connectable=0;fillColor=none;top=0;left=0;bottom=0;right=0;editable=1;overflow=hidden;whiteSpace=wrap;html=1;" parent="y2IgsB-8PV7QhEY4FL5_-49" vertex="1">
          <mxGeometry width="30" height="30" as="geometry">
            <mxRectangle width="30" height="30" as="alternateBounds" />
          </mxGeometry>
        </mxCell>
        <mxCell id="y2IgsB-8PV7QhEY4FL5_-51" value="soundDesc" style="shape=partialRectangle;connectable=0;fillColor=none;top=0;left=0;bottom=0;right=0;align=left;spacingLeft=6;overflow=hidden;whiteSpace=wrap;html=1;" parent="y2IgsB-8PV7QhEY4FL5_-49" vertex="1">
          <mxGeometry x="30" width="150" height="30" as="geometry">
            <mxRectangle width="150" height="30" as="alternateBounds" />
          </mxGeometry>
        </mxCell>
        <mxCell id="y2IgsB-8PV7QhEY4FL5_-52" value="" style="shape=tableRow;horizontal=0;startSize=0;swimlaneHead=0;swimlaneBody=0;fillColor=none;collapsible=0;dropTarget=0;points=[[0,0.5],[1,0.5]];portConstraint=eastwest;top=0;left=0;right=0;bottom=0;" parent="y2IgsB-8PV7QhEY4FL5_-36" vertex="1">
          <mxGeometry y="180" width="180" height="30" as="geometry" />
        </mxCell>
        <mxCell id="y2IgsB-8PV7QhEY4FL5_-53" value="" style="shape=partialRectangle;connectable=0;fillColor=none;top=0;left=0;bottom=0;right=0;editable=1;overflow=hidden;whiteSpace=wrap;html=1;" parent="y2IgsB-8PV7QhEY4FL5_-52" vertex="1">
          <mxGeometry width="30" height="30" as="geometry">
            <mxRectangle width="30" height="30" as="alternateBounds" />
          </mxGeometry>
        </mxCell>
        <mxCell id="y2IgsB-8PV7QhEY4FL5_-54" value="soundName" style="shape=partialRectangle;connectable=0;fillColor=none;top=0;left=0;bottom=0;right=0;align=left;spacingLeft=6;overflow=hidden;whiteSpace=wrap;html=1;" parent="y2IgsB-8PV7QhEY4FL5_-52" vertex="1">
          <mxGeometry x="30" width="150" height="30" as="geometry">
            <mxRectangle width="150" height="30" as="alternateBounds" />
          </mxGeometry>
        </mxCell>
        <mxCell id="y2IgsB-8PV7QhEY4FL5_-55" value="" style="shape=tableRow;horizontal=0;startSize=0;swimlaneHead=0;swimlaneBody=0;fillColor=none;collapsible=0;dropTarget=0;points=[[0,0.5],[1,0.5]];portConstraint=eastwest;top=0;left=0;right=0;bottom=0;" parent="y2IgsB-8PV7QhEY4FL5_-36" vertex="1">
          <mxGeometry y="210" width="180" height="30" as="geometry" />
        </mxCell>
        <mxCell id="y2IgsB-8PV7QhEY4FL5_-56" value="" style="shape=partialRectangle;connectable=0;fillColor=none;top=0;left=0;bottom=0;right=0;editable=1;overflow=hidden;whiteSpace=wrap;html=1;" parent="y2IgsB-8PV7QhEY4FL5_-55" vertex="1">
          <mxGeometry width="30" height="30" as="geometry">
            <mxRectangle width="30" height="30" as="alternateBounds" />
          </mxGeometry>
        </mxCell>
        <mxCell id="y2IgsB-8PV7QhEY4FL5_-57" value="soundTags" style="shape=partialRectangle;connectable=0;fillColor=none;top=0;left=0;bottom=0;right=0;align=left;spacingLeft=6;overflow=hidden;whiteSpace=wrap;html=1;" parent="y2IgsB-8PV7QhEY4FL5_-55" vertex="1">
          <mxGeometry x="30" width="150" height="30" as="geometry">
            <mxRectangle width="150" height="30" as="alternateBounds" />
          </mxGeometry>
        </mxCell>
        <mxCell id="y2IgsB-8PV7QhEY4FL5_-59" value="" style="edgeStyle=entityRelationEdgeStyle;fontSize=12;html=1;endArrow=ERone;startArrow=ERone;rounded=0;entryX=1;entryY=0.5;entryDx=0;entryDy=0;exitX=0;exitY=0.5;exitDx=0;exitDy=0;startFill=0;endFill=0;" parent="1" source="y2IgsB-8PV7QhEY4FL5_-18" target="y2IgsB-8PV7QhEY4FL5_-2" edge="1">
          <mxGeometry width="100" height="100" relative="1" as="geometry">
            <mxPoint x="850" y="600" as="sourcePoint" />
            <mxPoint x="950" y="500" as="targetPoint" />
            <Array as="points">
              <mxPoint x="650" y="450" />
              <mxPoint x="590" y="510" />
              <mxPoint x="820" y="500" />
              <mxPoint x="730" y="310" />
              <mxPoint x="830" y="470" />
              <mxPoint x="630" y="390" />
              <mxPoint x="760" y="450" />
              <mxPoint x="740" y="400" />
            </Array>
          </mxGeometry>
        </mxCell>
        <mxCell id="PZGlqNY64F4nG6sVR6CE-3" style="edgeStyle=orthogonalEdgeStyle;rounded=0;orthogonalLoop=1;jettySize=auto;html=1;entryX=0;entryY=0.5;entryDx=0;entryDy=0;endArrow=ERzeroToMany;endFill=0;startArrow=ERone;startFill=0;" parent="1" source="y2IgsB-8PV7QhEY4FL5_-2" target="y2IgsB-8PV7QhEY4FL5_-37" edge="1">
          <mxGeometry relative="1" as="geometry">
            <Array as="points">
              <mxPoint x="310" y="415" />
              <mxPoint x="310" y="255" />
            </Array>
          </mxGeometry>
        </mxCell>
        <mxCell id="PZGlqNY64F4nG6sVR6CE-4" style="edgeStyle=orthogonalEdgeStyle;rounded=0;orthogonalLoop=1;jettySize=auto;html=1;entryX=1;entryY=0.5;entryDx=0;entryDy=0;endArrow=ERzeroToMany;endFill=0;startArrow=ERone;startFill=0;" parent="1" source="y2IgsB-8PV7QhEY4FL5_-18" target="y2IgsB-8PV7QhEY4FL5_-37" edge="1">
          <mxGeometry relative="1" as="geometry">
            <Array as="points">
              <mxPoint x="790" y="545" />
              <mxPoint x="790" y="255" />
            </Array>
          </mxGeometry>
        </mxCell>
      </root>
    </mxGraphModel>
  </diagram>
  <diagram id="g558aYMoHkc0UPpv86Y4" name="Struktur Perusahaan">
    <mxGraphModel dx="1380" dy="1498" grid="1" gridSize="10" guides="1" tooltips="1" connect="1" arrows="1" fold="1" page="1" pageScale="1" pageWidth="850" pageHeight="1100" math="0" shadow="0">
      <root>
        <mxCell id="0" />
        <mxCell id="1" parent="0" />
        <mxCell id="un9URRFKdJgISPEFvjLz-45" style="edgeStyle=orthogonalEdgeStyle;rounded=0;orthogonalLoop=1;jettySize=auto;html=1;entryX=0.5;entryY=0;entryDx=0;entryDy=0;" edge="1" parent="1" source="un9URRFKdJgISPEFvjLz-1" target="un9URRFKdJgISPEFvjLz-22">
          <mxGeometry relative="1" as="geometry" />
        </mxCell>
        <mxCell id="un9URRFKdJgISPEFvjLz-56" style="edgeStyle=orthogonalEdgeStyle;rounded=0;orthogonalLoop=1;jettySize=auto;html=1;entryX=0.5;entryY=1;entryDx=0;entryDy=0;" edge="1" parent="1" source="un9URRFKdJgISPEFvjLz-1" target="un9URRFKdJgISPEFvjLz-55">
          <mxGeometry relative="1" as="geometry">
            <Array as="points">
              <mxPoint x="300" y="100" />
              <mxPoint x="705" y="100" />
            </Array>
          </mxGeometry>
        </mxCell>
        <mxCell id="un9URRFKdJgISPEFvjLz-1" value="Matt &quot;djojo&quot; Djojonegoro&lt;div&gt;&lt;b&gt;&lt;i&gt;CO-FOUNDER &amp;amp; CHAIRMAN&lt;/i&gt;&lt;/b&gt;&lt;/div&gt;" style="rounded=0;whiteSpace=wrap;html=1;" vertex="1" parent="1">
          <mxGeometry x="190" y="120" width="220" height="60" as="geometry" />
        </mxCell>
        <mxCell id="un9URRFKdJgISPEFvjLz-46" style="edgeStyle=orthogonalEdgeStyle;rounded=0;orthogonalLoop=1;jettySize=auto;html=1;entryX=0.5;entryY=0;entryDx=0;entryDy=0;" edge="1" parent="1" source="un9URRFKdJgISPEFvjLz-2" target="un9URRFKdJgISPEFvjLz-6">
          <mxGeometry relative="1" as="geometry">
            <Array as="points">
              <mxPoint x="570" y="210" />
              <mxPoint x="490" y="210" />
            </Array>
          </mxGeometry>
        </mxCell>
        <mxCell id="un9URRFKdJgISPEFvjLz-57" style="edgeStyle=orthogonalEdgeStyle;rounded=0;orthogonalLoop=1;jettySize=auto;html=1;entryX=0.5;entryY=1;entryDx=0;entryDy=0;" edge="1" parent="1" source="un9URRFKdJgISPEFvjLz-2" target="un9URRFKdJgISPEFvjLz-55">
          <mxGeometry relative="1" as="geometry" />
        </mxCell>
        <mxCell id="un9URRFKdJgISPEFvjLz-2" value="Nikhil &quot;nikh&quot; Hathiramani&lt;div&gt;&lt;b&gt;&lt;i&gt;CO-FOUNDER &amp;amp; CEO&lt;/i&gt;&lt;/b&gt;&lt;/div&gt;" style="rounded=0;whiteSpace=wrap;html=1;" vertex="1" parent="1">
          <mxGeometry x="460" y="120" width="220" height="60" as="geometry" />
        </mxCell>
        <mxCell id="un9URRFKdJgISPEFvjLz-47" style="edgeStyle=orthogonalEdgeStyle;rounded=0;orthogonalLoop=1;jettySize=auto;html=1;entryX=0.5;entryY=0;entryDx=0;entryDy=0;" edge="1" parent="1" source="un9URRFKdJgISPEFvjLz-3" target="un9URRFKdJgISPEFvjLz-6">
          <mxGeometry relative="1" as="geometry">
            <Array as="points">
              <mxPoint x="840" y="210" />
              <mxPoint x="490" y="210" />
            </Array>
          </mxGeometry>
        </mxCell>
        <mxCell id="un9URRFKdJgISPEFvjLz-52" style="edgeStyle=orthogonalEdgeStyle;rounded=0;orthogonalLoop=1;jettySize=auto;html=1;entryX=0.5;entryY=0;entryDx=0;entryDy=0;" edge="1" parent="1" source="un9URRFKdJgISPEFvjLz-3" target="un9URRFKdJgISPEFvjLz-40">
          <mxGeometry relative="1" as="geometry">
            <Array as="points">
              <mxPoint x="840" y="210" />
              <mxPoint x="765" y="210" />
            </Array>
          </mxGeometry>
        </mxCell>
        <mxCell id="un9URRFKdJgISPEFvjLz-58" style="edgeStyle=orthogonalEdgeStyle;rounded=0;orthogonalLoop=1;jettySize=auto;html=1;entryX=0.5;entryY=1;entryDx=0;entryDy=0;" edge="1" parent="1" source="un9URRFKdJgISPEFvjLz-3" target="un9URRFKdJgISPEFvjLz-55">
          <mxGeometry relative="1" as="geometry" />
        </mxCell>
        <mxCell id="un9URRFKdJgISPEFvjLz-3" value="Gad &quot;psychrbbt&quot; Tan&lt;div&gt;&lt;b&gt;&lt;i&gt;CO-FOUNDER &amp;amp; CREATIVE DIRECTOR&lt;/i&gt;&lt;/b&gt;&lt;/div&gt;" style="rounded=0;whiteSpace=wrap;html=1;" vertex="1" parent="1">
          <mxGeometry x="730" y="120" width="220" height="60" as="geometry" />
        </mxCell>
        <mxCell id="un9URRFKdJgISPEFvjLz-53" style="edgeStyle=orthogonalEdgeStyle;rounded=0;orthogonalLoop=1;jettySize=auto;html=1;entryX=0.5;entryY=0;entryDx=0;entryDy=0;" edge="1" parent="1" source="un9URRFKdJgISPEFvjLz-4" target="un9URRFKdJgISPEFvjLz-12">
          <mxGeometry relative="1" as="geometry" />
        </mxCell>
        <mxCell id="un9URRFKdJgISPEFvjLz-54" style="edgeStyle=orthogonalEdgeStyle;rounded=0;orthogonalLoop=1;jettySize=auto;html=1;entryX=0.5;entryY=0;entryDx=0;entryDy=0;" edge="1" parent="1" source="un9URRFKdJgISPEFvjLz-4" target="un9URRFKdJgISPEFvjLz-41">
          <mxGeometry relative="1" as="geometry" />
        </mxCell>
        <mxCell id="un9URRFKdJgISPEFvjLz-59" style="edgeStyle=orthogonalEdgeStyle;rounded=0;orthogonalLoop=1;jettySize=auto;html=1;entryX=0.5;entryY=1;entryDx=0;entryDy=0;" edge="1" parent="1" source="un9URRFKdJgISPEFvjLz-4" target="un9URRFKdJgISPEFvjLz-55">
          <mxGeometry relative="1" as="geometry">
            <Array as="points">
              <mxPoint x="1110" y="100" />
              <mxPoint x="705" y="100" />
            </Array>
          </mxGeometry>
        </mxCell>
        <mxCell id="un9URRFKdJgISPEFvjLz-4" value="Harley &quot;dsn&quot; Orvall&lt;div&gt;&lt;b&gt;&lt;i&gt;CO-FOUNDER &amp;amp; CHIEF GAMING OFFICER&lt;/i&gt;&lt;/b&gt;&lt;/div&gt;" style="rounded=0;whiteSpace=wrap;html=1;" vertex="1" parent="1">
          <mxGeometry x="1000" y="120" width="220" height="60" as="geometry" />
        </mxCell>
        <mxCell id="un9URRFKdJgISPEFvjLz-51" style="edgeStyle=orthogonalEdgeStyle;rounded=0;orthogonalLoop=1;jettySize=auto;html=1;entryX=0.5;entryY=0;entryDx=0;entryDy=0;" edge="1" parent="1" source="un9URRFKdJgISPEFvjLz-5" target="un9URRFKdJgISPEFvjLz-23">
          <mxGeometry relative="1" as="geometry" />
        </mxCell>
        <mxCell id="un9URRFKdJgISPEFvjLz-5" value="Andi &quot;Sleepy&quot; Bangsawan&lt;div&gt;&lt;b&gt;&lt;i&gt;GENERAL MANAGER - INDONESIA&lt;/i&gt;&lt;/b&gt;&lt;/div&gt;" style="rounded=0;whiteSpace=wrap;html=1;" vertex="1" parent="1">
          <mxGeometry x="380" y="324" width="220" height="60" as="geometry" />
        </mxCell>
        <mxCell id="un9URRFKdJgISPEFvjLz-50" style="edgeStyle=orthogonalEdgeStyle;rounded=0;orthogonalLoop=1;jettySize=auto;html=1;entryX=0.5;entryY=0;entryDx=0;entryDy=0;" edge="1" parent="1" source="un9URRFKdJgISPEFvjLz-6" target="un9URRFKdJgISPEFvjLz-5">
          <mxGeometry relative="1" as="geometry" />
        </mxCell>
        <mxCell id="un9URRFKdJgISPEFvjLz-6" value="Clara &quot;Declaration&quot; Tan&lt;div&gt;&lt;b&gt;&lt;i&gt;CONTENT LEAD&lt;/i&gt;&lt;/b&gt;&lt;/div&gt;" style="rounded=0;whiteSpace=wrap;html=1;" vertex="1" parent="1">
          <mxGeometry x="380" y="234" width="220" height="60" as="geometry" />
        </mxCell>
        <mxCell id="un9URRFKdJgISPEFvjLz-11" value="Joshua &quot;JdFaker&quot; Fok&lt;div&gt;&lt;b&gt;&lt;i&gt;TEAM MANAGER&lt;/i&gt;&lt;/b&gt;&lt;/div&gt;" style="rounded=0;whiteSpace=wrap;html=1;" vertex="1" parent="1">
          <mxGeometry x="930" y="324" width="220" height="60" as="geometry" />
        </mxCell>
        <mxCell id="un9URRFKdJgISPEFvjLz-12" value="Alexandre &quot;alecks&quot; Salle&lt;div&gt;&lt;b&gt;&lt;i&gt;HEAD COACH&lt;/i&gt;&lt;/b&gt;&lt;/div&gt;" style="rounded=0;whiteSpace=wrap;html=1;" vertex="1" parent="1">
          <mxGeometry x="930" y="234" width="220" height="60" as="geometry" />
        </mxCell>
        <mxCell id="un9URRFKdJgISPEFvjLz-22" value="&lt;b&gt;&lt;i&gt;ADMINISTRATION, PARTNERSHIP, &amp;amp; BUSINESS DEVELOPMENT&lt;/i&gt;&lt;/b&gt;" style="rounded=0;whiteSpace=wrap;html=1;" vertex="1" parent="1">
          <mxGeometry x="95" y="234" width="250" height="60" as="geometry" />
        </mxCell>
        <mxCell id="un9URRFKdJgISPEFvjLz-23" value="&lt;b&gt;&lt;i&gt;BRANDING, CONTENT &amp;amp; CREATIVE SERVICES&lt;/i&gt;&lt;/b&gt;" style="rounded=0;whiteSpace=wrap;html=1;" vertex="1" parent="1">
          <mxGeometry x="365" y="414" width="250" height="60" as="geometry" />
        </mxCell>
        <mxCell id="un9URRFKdJgISPEFvjLz-24" value="" style="rounded=0;whiteSpace=wrap;html=1;" vertex="1" parent="1">
          <mxGeometry x="365" y="474" width="250" height="380" as="geometry" />
        </mxCell>
        <mxCell id="un9URRFKdJgISPEFvjLz-25" value="Ashley &quot;businessdoggo&quot; Lim&lt;div&gt;&lt;b&gt;&lt;i&gt;JUNIOR CREATIVE DIRECTOR&lt;/i&gt;&lt;/b&gt;&lt;/div&gt;" style="rounded=0;whiteSpace=wrap;html=1;" vertex="1" parent="1">
          <mxGeometry x="380" y="564" width="220" height="60" as="geometry" />
        </mxCell>
        <mxCell id="un9URRFKdJgISPEFvjLz-26" value="Jason &quot;BebelaK&quot; Lim&lt;div&gt;&lt;b&gt;&lt;i&gt;PART-TIME VIDEO EDITOR&lt;/i&gt;&lt;/b&gt;&lt;/div&gt;" style="rounded=0;whiteSpace=wrap;html=1;" vertex="1" parent="1">
          <mxGeometry x="380" y="634" width="220" height="60" as="geometry" />
        </mxCell>
        <mxCell id="un9URRFKdJgISPEFvjLz-28" value="Hiera &quot;Salmonized&quot; Rhesadewa&lt;div&gt;&lt;b&gt;&lt;i&gt;PART-TIME VIDEO EDITOR &amp;amp; ENGINEERING TEAM&lt;/i&gt;&lt;/b&gt;&lt;/div&gt;" style="rounded=0;whiteSpace=wrap;html=1;" vertex="1" parent="1">
          <mxGeometry x="380" y="704" width="220" height="60" as="geometry" />
        </mxCell>
        <mxCell id="un9URRFKdJgISPEFvjLz-29" value="Alysha &quot;Alysha&quot; Aziz&lt;div&gt;&lt;b&gt;&lt;i&gt;SOCIAL MEDIA MANAGER&lt;/i&gt;&lt;/b&gt;&lt;/div&gt;" style="rounded=0;whiteSpace=wrap;html=1;" vertex="1" parent="1">
          <mxGeometry x="380" y="494" width="220" height="60" as="geometry" />
        </mxCell>
        <mxCell id="un9URRFKdJgISPEFvjLz-31" value="Juandi &quot;Juandi&quot;&lt;div&gt;&lt;b&gt;&lt;i&gt;EDITOR&lt;/i&gt;&lt;/b&gt;&lt;/div&gt;" style="rounded=0;whiteSpace=wrap;html=1;" vertex="1" parent="1">
          <mxGeometry x="380" y="774" width="220" height="60" as="geometry" />
        </mxCell>
        <mxCell id="un9URRFKdJgISPEFvjLz-32" value="&lt;b&gt;&lt;i&gt;Paper Rex VALORANT&lt;/i&gt;&lt;/b&gt;" style="rounded=0;whiteSpace=wrap;html=1;" vertex="1" parent="1">
          <mxGeometry x="915" y="414" width="250" height="60" as="geometry" />
        </mxCell>
        <mxCell id="un9URRFKdJgISPEFvjLz-33" value="" style="rounded=0;whiteSpace=wrap;html=1;" vertex="1" parent="1">
          <mxGeometry x="915" y="474" width="250" height="450" as="geometry" />
        </mxCell>
        <mxCell id="un9URRFKdJgISPEFvjLz-34" value="Aaron &quot;mindfreak&quot; Leonhart&lt;div&gt;&lt;b&gt;&lt;i&gt;PLAYER&lt;/i&gt;&lt;/b&gt;&lt;/div&gt;" style="rounded=0;whiteSpace=wrap;html=1;" vertex="1" parent="1">
          <mxGeometry x="930" y="494" width="220" height="60" as="geometry" />
        </mxCell>
        <mxCell id="un9URRFKdJgISPEFvjLz-35" value="Cahya &quot;Monyet&quot; Nugraha&lt;div&gt;&lt;b&gt;&lt;i&gt;PLAYER&lt;/i&gt;&lt;/b&gt;&lt;/div&gt;" style="rounded=0;whiteSpace=wrap;html=1;" vertex="1" parent="1">
          <mxGeometry x="930" y="564" width="220" height="60" as="geometry" />
        </mxCell>
        <mxCell id="un9URRFKdJgISPEFvjLz-36" value="Ilia &quot;Something&quot; Petrov&lt;div&gt;&lt;b&gt;&lt;i&gt;PLAYER&lt;/i&gt;&lt;/b&gt;&lt;/div&gt;" style="rounded=0;whiteSpace=wrap;html=1;" vertex="1" parent="1">
          <mxGeometry x="930" y="634" width="220" height="60" as="geometry" />
        </mxCell>
        <mxCell id="un9URRFKdJgISPEFvjLz-37" value="Jason &quot;f0rsakeN&quot; Susanto&lt;div&gt;&lt;b&gt;&lt;i&gt;PLAYER&lt;/i&gt;&lt;/b&gt;&lt;/div&gt;" style="rounded=0;whiteSpace=wrap;html=1;" vertex="1" parent="1">
          <mxGeometry x="930" y="704" width="220" height="60" as="geometry" />
        </mxCell>
        <mxCell id="un9URRFKdJgISPEFvjLz-38" value="Khalish &quot;d4v41&quot; Rusyaidee&lt;div&gt;&lt;b&gt;&lt;i&gt;PLAYER&lt;/i&gt;&lt;/b&gt;&lt;/div&gt;" style="rounded=0;whiteSpace=wrap;html=1;" vertex="1" parent="1">
          <mxGeometry x="930" y="774" width="220" height="60" as="geometry" />
        </mxCell>
        <mxCell id="un9URRFKdJgISPEFvjLz-39" value="Wang &quot;Jinggg&quot; Jing Jie&lt;div&gt;&lt;b&gt;&lt;i&gt;PLAYER&lt;/i&gt;&lt;/b&gt;&lt;/div&gt;" style="rounded=0;whiteSpace=wrap;html=1;" vertex="1" parent="1">
          <mxGeometry x="930" y="844" width="220" height="60" as="geometry" />
        </mxCell>
        <mxCell id="un9URRFKdJgISPEFvjLz-40" value="&lt;b&gt;&lt;i&gt;CONTENT CREATOR&lt;/i&gt;&lt;/b&gt;" style="rounded=0;whiteSpace=wrap;html=1;" vertex="1" parent="1">
          <mxGeometry x="640" y="234" width="250" height="60" as="geometry" />
        </mxCell>
        <mxCell id="un9URRFKdJgISPEFvjLz-41" value="&lt;b&gt;&lt;i&gt;MERCHANDISE&lt;/i&gt;&lt;/b&gt;" style="rounded=0;whiteSpace=wrap;html=1;" vertex="1" parent="1">
          <mxGeometry x="1180" y="234" width="250" height="60" as="geometry" />
        </mxCell>
        <mxCell id="un9URRFKdJgISPEFvjLz-42" value="" style="rounded=0;whiteSpace=wrap;html=1;" vertex="1" parent="1">
          <mxGeometry x="640" y="294" width="250" height="180" as="geometry" />
        </mxCell>
        <mxCell id="un9URRFKdJgISPEFvjLz-43" value="Rio &quot;Rio Djaja&quot; Djaja&lt;div&gt;&lt;b&gt;&lt;i&gt;CONTENT CREATOR&lt;/i&gt;&lt;/b&gt;&lt;/div&gt;" style="rounded=0;whiteSpace=wrap;html=1;" vertex="1" parent="1">
          <mxGeometry x="654" y="314" width="220" height="60" as="geometry" />
        </mxCell>
        <mxCell id="un9URRFKdJgISPEFvjLz-44" value="Spicy &quot;Spicyuuuu&quot; Yuuu&lt;div&gt;&lt;b&gt;&lt;i&gt;CONTENT CREATOR&lt;/i&gt;&lt;/b&gt;&lt;/div&gt;" style="rounded=0;whiteSpace=wrap;html=1;" vertex="1" parent="1">
          <mxGeometry x="654" y="394" width="220" height="60" as="geometry" />
        </mxCell>
        <mxCell id="un9URRFKdJgISPEFvjLz-55" value="&lt;b&gt;&lt;i&gt;BOARD OF DIRECTOR&lt;/i&gt;&lt;/b&gt;" style="rounded=0;whiteSpace=wrap;html=1;" vertex="1" parent="1">
          <mxGeometry x="190" y="23" width="1030" height="60" as="geometry" />
        </mxCell>
      </root>
    </mxGraphModel>
  </diagram>
</mxfile>
